<?xml version="1.0" standalone="no"?>
<!DOCTYPE svg PUBLIC "-//W3C//DTD SVG 1.1//EN" "http://www.w3.org/Graphics/SVG/1.1/DTD/svg11.dtd">
<svg xmlns="http://www.w3.org/2000/svg"><metadata>This SVG WebFont was generated by YouWorkForThem.
Copyright (c) 2008 by Thinkdust. All rights reserved.</metadata><defs><font horiz-adv-x="1189" id="ywftsvg"><font-face ascent="1536" bbox="-76 -506 2507 1931" cap-height="1534" descent="-512" font-family="" font-stretch="normal" font-weight="300" panose-1="0 0 0 0 0 0 0 0 0 0" underline-position="0" underline-thickness="0" unicode-range="U+0020-FB01" units-per-em="2048" x-height="1022"/><missing-glyph horiz-adv-x="593"/><glyph glyph-name=".notdef" horiz-adv-x="593"/><glyph glyph-name="glyph1" horiz-adv-x="0"/><glyph glyph-name="glyph2" horiz-adv-x="593"/><glyph glyph-name="space" horiz-adv-x="593" unicode=" "/><glyph glyph-name="space" horiz-adv-x="593" unicode=" "/><glyph d="M78 83q0 38 26.5 65.5t64.5 27.5t65.5 -27.5t27.5 -65.5t-27.5 -64.5t-65.5 -26.5t-64.5 26.5t-26.5 64.5zM78 270v1266h184v-1266h-184z" glyph-name="exclam" horiz-adv-x="339" unicode="!"/><glyph d="M369 938v598h143v-598h-143zM82 938v598h143v-598h-143z" glyph-name="quotedbl" horiz-adv-x="593" unicode="&quot;"/><glyph d="M510 932l-53 -391h348l55 391h-350zM68 461v80h307l53 391h-295v80h309l58 420h78l-54 -420h348l58 420h74l-7 -52q-4 -39 -15 -124t-30 -244h295v-80h-307l-55 -391h295v-80h-308l-59 -461h-84l64 461h-353l-59 -461h-80l59 461h-292z" glyph-name="numbersign" horiz-adv-x="1316" unicode="#"/><glyph d="M371 -188v180q-192 37 -244.5 129t-60.5 137v10q0 37 27.5 64.5t61.5 27.5q63 0 93 -71q27 -59 86.5 -91t119.5 -32q112 0 185.5 72t73.5 178q0 130 -127 211q-49 33 -156 72.5t-158 70.5q-213 133 -213 365q0 142 88 254t224 149v178h184v-172q90 -16 164 -69.5 t119 -128.5q12 -23 12 -53t-27.5 -57.5t-60.5 -27.5q-60 0 -87 52q-28 52 -81.5 81t-107.5 29q-98 0 -165 -66t-67 -144q0 -154 108.5 -213.5t186 -95.5t121.5 -60q219 -123 219 -377q0 -150 -95.5 -267.5t-238.5 -150.5v-184h-184z" glyph-name="dollar" horiz-adv-x="950" unicode="$"/><glyph d="M418 39l823 1513l94 -61l-821 -1505zM63 1167.5q0 75.5 29 143t79 118t117.5 79t143.5 28.5t143.5 -28.5t117.5 -79t79 -118t29 -143t-29 -143.5t-79 -118t-117.5 -78.5t-143.5 -28.5t-143.5 28.5t-117.5 78.5t-79 118t-29 143.5zM209 1167q0 -47 17.5 -88t47 -70.5 t70.5 -47t88 -17.5t88 17.5t71 47t47 70.5t17 88t-17 88t-47 71t-71 47.5t-88 17.5t-88 -17.5t-70.5 -47.5t-47 -71t-17.5 -88zM979 368.5q0 75.5 28.5 143.5t79 118t118 78.5t143 28.5t143.5 -28.5t118 -78.5t78.5 -118t28.5 -143.5t-28.5 -143t-78.5 -118t-118 -79 t-143.5 -28.5t-143 28.5t-118 79t-79 118t-28.5 143zM1124 369q0 -47 17.5 -88t47.5 -71t70.5 -47.5t88 -17.5t88.5 17.5t70.5 47.5t47 71t17.5 88t-17.5 88t-47 70.5t-70.5 47t-88.5 17.5t-88 -17.5t-70.5 -47t-47.5 -70.5t-17.5 -88z" glyph-name="percent" horiz-adv-x="1781" unicode="%"/><glyph d="M514 1370q-62 0 -108 -37t-46 -94t32.5 -112t146.5 -138q4 0 24.5 13.5t44 41t42 71.5t18.5 105.5t-46 105.5t-108 44zM323.5 243q73.5 -77 184.5 -77q72 0 152.5 80.5t132.5 165.5l16 34q2 2 2 7l-291 292q-123 -73 -196.5 -150.5t-73.5 -176t73.5 -175.5zM494 -16 q-74 0 -155 32.5t-177 125.5t-96 274q0 123 66.5 229.5t182.5 185.5l72 50q-74 70 -125 124q-82 86 -82 223t95.5 230.5t236.5 93.5t239.5 -96.5t98.5 -216.5t-38 -209.5t-140 -175.5l229 -233l158 297l162 -87l-185 -348l346 -352l-131 -129l-303 311q-136 -277 -258 -303 t-196 -26z" glyph-name="ampersand" horiz-adv-x="1449" unicode="&amp;"/><glyph d="M80 942v594h143v-594h-143z" glyph-name="quotesingle" horiz-adv-x="305" unicode="'"/><glyph d="M80 317v803q0 322 237 506l117 -119q-152 -147 -162 -268t-10 -197v-649q0 -167 32.5 -262.5t139.5 -200.5l-117 -120q-237 186 -237 507z" glyph-name="parenleft" horiz-adv-x="514" unicode="("/><glyph d="M248 393v649q0 170 -32.5 266t-139.5 199l117 119q238 -184 237 -506v-803q0 -319 -237 -507l-117 120q152 147 162 268t10 195z" glyph-name="parenright" horiz-adv-x="505" unicode=")"/><glyph d="M233 1421l168 -227l-39 279h164l-39 -279l168 227l121 -123l-227 -165l278 36v-161l-278 39l227 -168l-121 -119l-168 227l39 -278h-164l39 276l-168 -227l-120 121l227 168l-279 -39v161l281 -36l-229 170z" glyph-name="asterisk" horiz-adv-x="890" unicode="*"/><glyph d="M494 8v449h-451v127h451v440h127v-440h450v-127h-450v-449h-127z" glyph-name="plus" horiz-adv-x="1114" unicode="+"/><glyph d="M47 229l166 13l16 -402h-63z" glyph-name="comma" horiz-adv-x="276" unicode=","/><glyph d="M729 520h-651v135h651v-135z" glyph-name="hyphen" horiz-adv-x="808" unicode="-"/><glyph d="M157 -8q-36 0 -61.5 25.5t-25.5 61.5t26.5 60.5t60.5 24.5t60.5 -25.5t26.5 -59.5t-25.5 -60.5t-61.5 -26.5z" glyph-name="period" horiz-adv-x="313" unicode="."/><glyph d="M41 31l440 1521l109 -32l-443 -1524z" glyph-name="slash" horiz-adv-x="630" unicode="/"/><glyph d="M388.5 1266.5q-93.5 -95.5 -93.5 -219.5v-560q0 -124 94.5 -220.5t223.5 -96.5t222 93t93 224v560q0 129 -93 222t-223 93t-223.5 -95.5zM115 483v568q0 200 148.5 348.5t343.5 148.5t350 -139.5t155 -357.5v-568q0 -201 -147.5 -350t-348.5 -149q-200 0 -350.5 145 t-150.5 354z" glyph-name="zero" horiz-adv-x="1228" unicode="0"/><glyph d="M635 0v1346q0 12 -3 19t-20 7h-206v164h415v-1536h-186z" glyph-name="one" horiz-adv-x="1228" unicode="1"/><glyph d="M1081 0h-936v219q25 27 89.5 85t147.5 134t172 163t163 173t122 165t48 168.5t-84.5 172t-189.5 82.5t-179 -54.5t-104 -142.5l-174 58q46 139 169.5 230t276.5 91q195 0 332 -139t137 -328q0 -236 -261 -482.5t-357 -332.5l-50 -45q-27 -20 -26.5 -26.5t41.5 -6.5h663 v-184z" glyph-name="two" horiz-adv-x="1228" unicode="2"/><glyph d="M817.5 251.5q89.5 87.5 89.5 212.5t-79 229t-199 112h-11q-12 0 -16 2l-8 158q23 16 85 58.5t62 165.5t-50 152t-86 29q-67 0 -104 -25.5t-79 -80.5l-156 94q14 32 51 69q66 66 127.5 95.5t141.5 29.5q142 0 240 -91.5t98 -227.5q0 -70 -17.5 -145.5t-87.5 -169.5 q150 -78 210.5 -198t60.5 -236q0 -213 -140 -356.5t-325 -143.5q-184 0 -321 108t-167 275l182 30q25 -101 104.5 -167t192.5 -66q112 0 201.5 87.5z" glyph-name="three" horiz-adv-x="1228" unicode="3"/><glyph d="M764 451q14 0 14 16v694q0 8 -4 8t-6 -6l-455 -700q-2 -2 -2 -7t8 -5h445zM1120 266h-147q-10 0 -10 -12v-254h-185v254q0 12 -12 12h-660v172l705 1098h152v-1073q0 -12 12 -12h145v-185z" glyph-name="four" horiz-adv-x="1228" unicode="4"/><glyph d="M573 836q-160 0 -278 -43l-115 133l127 610h699v-180h-533q-14 0 -20.5 -2t-10.5 -15q-16 -82 -27.5 -145.5t-21.5 -113.5t-18 -91q31 7 83 19t144 12q90 0 185.5 -41t206 -153t110.5 -326q0 -213 -110.5 -323.5t-206 -151.5t-185.5 -41q-161 0 -287.5 76.5t-189.5 207.5 l162 74q39 -82 118 -129t165 -47t147 26.5t106 71.5t71 106.5t26 165.5t-98 202t-236 98h-13z" glyph-name="five" horiz-adv-x="1228" unicode="5"/><glyph d="M644 1034q70 0 165.5 -35.5t212.5 -144.5t117 -338t-151.5 -380.5t-375.5 -151.5t-374 151t-150 373q0 137 70 264l495 778l160 -96l-272 -426q33 6 103 6zM370 265.5q98 -97.5 244 -97.5t243 97t97 242t-99 244t-243 99t-242 -97.5t-98 -243.5t98 -243.5z" glyph-name="six" horiz-adv-x="1228" unicode="6"/><glyph d="M823 1358h-635v178h852v-178l-602 -1366l-170 74l563 1277q2 4 3 9q0 6 -11 6z" glyph-name="seven" horiz-adv-x="1228" unicode="7"/><glyph d="M459 1307q-66 -66 -66 -151t64 -163q67 -65 157 -65t156 65q66 70 66 160t-67 153.5t-154.5 63.5t-155.5 -63zM313 465q0 -125 88 -213t211 -88t211 88t88 214t-84 214q-88 84 -214 84t-213 -87t-87 -212zM952 125q-141 -141 -335 -141t-345 139q-139 147 -139 342 q0 145 70.5 231t111.5 119l56 45l-47 49q-111 121 -111 242q0 168 117 285q121 116 288 116t279 -116q119 -119 119 -285q0 -70 -31 -126t-84 -116l-45 -49l53 -45q111 -89 148 -186t37 -179t-35 -168.5t-107 -156.5z" glyph-name="eight" horiz-adv-x="1228" unicode="8"/><glyph d="M580 494q-70 0 -164 35.5t-211 143.5t-117 337t152 381.5t374 152.5t373.5 -151.5t151.5 -372.5q0 -137 -70 -264l-491 -774l-160 96l268 422q-36 -6 -106 -6zM857 775q97 97 97 244t-97 244t-243 97t-244 -97.5t-98 -241.5t100 -243.5t244 -99.5t241 97z" glyph-name="nine" horiz-adv-x="1228" unicode="9"/><glyph d="M159 748q-36 0 -61.5 25.5t-25.5 61.5t26.5 60.5t60.5 24.5t60.5 -26t26.5 -60t-25.5 -60t-61.5 -26zM159 -8q-36 0 -61.5 25.5t-25.5 61.5t26.5 60.5t60.5 24.5t60.5 -25.5t26.5 -59.5t-25.5 -60.5t-61.5 -26.5z" glyph-name="colon" horiz-adv-x="319" unicode=":"/><glyph d="M49 229l166 13l16 -402h-63zM159 748q-36 0 -61.5 25.5t-25.5 61.5t26.5 60.5t60.5 24.5t60.5 -26t26.5 -60t-25.5 -60t-61.5 -26z" glyph-name="semicolon" horiz-adv-x="294" unicode=";"/><glyph d="M1130 23l-1079 430v135l1079 426l39 -101l-41 -17q-41 -17 -151 -65.5t-295 -127.5q-185 -78 -444 -191l931 -389z" glyph-name="less" horiz-adv-x="1222" unicode="&lt;"/><glyph d="M1014 303h-934v135h934v-135zM1014 582h-934v135h934v-135z" glyph-name="equal" horiz-adv-x="1095" unicode="="/><glyph d="M86 123l932 389q-358 155 -539.5 232t-247 106t-105.5 46l-40 17l39 101l1079 -426v-135l-1079 -430z" glyph-name="greater" horiz-adv-x="1290" unicode=">"/><glyph d="M313 84q0 39 27 65.5t65.5 26.5t65.5 -26.5t27 -65.5t-27 -65.5t-65.5 -26.5t-65.5 26.5t-27 65.5zM406 556q0 -107 53 -204l-162 -65q-78 85 -78 196t28.5 184.5t71.5 130t92.5 100.5t121 114t71.5 170q0 178 -188 178q-94 0 -146.5 -57.5t-70.5 -75.5l-136 127 q40 69 139 129.5t193 60.5q179 0 287.5 -96t108.5 -276t-157 -317.5t-192.5 -196t-35.5 -102.5z" glyph-name="question" horiz-adv-x="856" unicode="?"/><glyph d="M926 1065q-137 0 -223.5 -123t-86.5 -295q0 -100 43 -157q43 -58 129 -58t159 68q72 68 97 172l39 149q28 114 -30 180q-53 64 -127 64zM903 -16q-163 0 -315 49t-272 144t-184 233.5t-64 310.5t68.5 325.5t197.5 269.5q264 238 660 238q114 0 247 -40t236 -117 q231 -176 231 -461t-217 -477q-128 -99 -270 -99q-78 0 -121 31q-56 45 -56 146q-75 -97 -104 -114t-43 -26q-66 -37 -145 -37q-129 0 -198 74t-69 194q0 231 120 369t243 138t175 -28t93 -116l64 127l104 -12l-127 -504q-8 -31 -8 -59q0 -92 108 -92t201 110 q139 139 139 372t-172.5 373t-461.5 140q-156 0 -299 -56t-248 -155q-234 -211 -238 -526q0 -240 166 -410q98 -97 240 -153t307 -56q346 0 557 141l37 -49q-262 -198 -582 -198z" glyph-name="at" horiz-adv-x="1777" unicode="@"/><glyph d="M632 1202q-3 0 -5 -6l-221 -651q-2 -2 -2 -9t10 -8h432q14 0 14 11l-225 657q0 6 -3 6zM909 344h-557q-18 0 -20 -14l-117 -330h-192l538 1536h135l543 -1536h-197l-114 330q-4 14 -19 14z" glyph-name="A" horiz-adv-x="1263" unicode="A"/><glyph d="M266 879q0 -14 13 -15h155q138 0 198 77.5t60 199.5t-89 167.5t-169 45.5h-149q-18 0 -19 -19v-456zM266 201q0 -18 19 -19h254q139 0 198.5 78.5t59.5 200.5t-89.5 170.5t-168.5 48.5h-260q-12 -4 -13 -12v-467zM82 1536h348q198 0 322.5 -114t124.5 -291 q0 -176 -49.5 -234.5t-69.5 -83.5q111 -57 167 -159t56 -214q0 -207 -123.5 -323.5t-322.5 -116.5h-453v1536z" glyph-name="B" horiz-adv-x="1062" unicode="B"/><glyph d="M74 767q0 161 62.5 303t169 249.5t249.5 170t279 62.5q319 0 516 -166l-111 -151q-161 133 -383 133q-127 0 -236.5 -48t-235.5 -177t-126 -377q0 -115 50 -222.5t134 -191.5t192.5 -134t225.5 -50q215 0 379 133l109 -154q-196 -163 -488 -163q-162 0 -304 62.5 t-249.5 169t-170 248.5t-62.5 303z" glyph-name="C" horiz-adv-x="1423" unicode="C"/><glyph d="M279 1352q-12 0 -13 -9v-1146q0 -12 13 -13h274q119 0 224.5 47.5t184 127t125 185t46.5 224.5t-46.5 225.5t-126 186.5t-186 126t-225.5 46h-270zM82 0v1536h471q160 0 299 -60.5t242.5 -165t163 -243.5t59.5 -299t-59.5 -300t-163 -243.5t-242.5 -164t-299 -60.5h-471z " glyph-name="D" horiz-adv-x="1398" unicode="D"/><glyph d="M838 0h-754v1536h754v-184h-557q-12 0 -13 -9v-471q0 -8 13 -8h557v-184h-557q-12 0 -13 -10v-473q0 -12 13 -13h557v-184z" glyph-name="E" horiz-adv-x="921" unicode="E"/><glyph d="M840 680h-561q-12 0 -13 -12v-668h-184v1536h758v-184h-561q-12 0 -13 -13v-462q0 -12 13 -13h561v-184z" glyph-name="F" horiz-adv-x="921" unicode="F"/><glyph d="M870 1368q-123 0 -232.5 -47t-238.5 -177t-129 -376q0 -123 47.5 -232.5t129 -191.5t191.5 -129t220 -47q202 0 314.5 110.5t140.5 290.5h-539v185h744v-119q-21 -292 -190 -471.5t-458 -179.5q-164 0 -306 61t-248.5 167.5t-168 249t-61.5 305.5t61.5 306.5t168 250 t249 167.5t297.5 61q300 0 520 -190l-129 -131q-154 137 -383 137z" glyph-name="G" horiz-adv-x="1605" unicode="G"/><glyph d="M276 676q-12 0 -12 -12v-664h-184v1536h184v-664q0 -12 12 -12h617q12 0 12 12v664h185v-1536h-185v664q0 12 -12 12h-617z" glyph-name="H" horiz-adv-x="1171" unicode="H"/><glyph d="M80 0v1534h184v-1534h-184z" glyph-name="I" horiz-adv-x="346" unicode="I"/><glyph d="M387 168q91 0 149 56t58 138v1178h184v-1178q0 -159 -111 -268.5t-268 -109.5q-121 0 -214 67.5t-138 171.5l170 72q23 -53 71 -90t99 -37z" glyph-name="J" horiz-adv-x="827" unicode="J"/><glyph d="M246 610v-610h-185v1536h185v-676q0 -4 4 -4q103 154 438 680h211q-119 -186 -202 -314t-137 -212t-86 -132.5t-47 -72t-19.5 -30.5t-4.5 -11l500 -764h-221l-428 670q-4 4 -6 4l-1 -23q-1 -23 -1 -41z" glyph-name="K" horiz-adv-x="966" unicode="K"/><glyph d="M838 0h-758v1536h184v-1339q0 -12 12 -13h562v-184z" glyph-name="L" horiz-adv-x="919" unicode="L"/><glyph d="M80 0v1534h266l410 -1200q2 -6 5 -6t3 6l407 1200h267v-1532h-185v1241l-18 -52q-72 -208 -112 -328t-81.5 -242.5t-126 -370.5t-84.5 -250h-141l-426 1249v-1249h-184z" glyph-name="M" horiz-adv-x="1519" unicode="M"/><glyph d="M80 0v1534h227l746 -1245q2 -6 5 -6t3 6v1247h184v-1536h-229l-742 1239q-4 6 -7 6t-3 -8v-1237h-184z" glyph-name="N" horiz-adv-x="1327" unicode="N"/><glyph d="M252 769q0 -124 47 -233.5t129 -191.5t191.5 -129t233.5 -47t232.5 47t190.5 129t129 191.5t47 233.5q0 247 -176 423t-424 176q-123 0 -232.5 -47t-191.5 -129t-129 -190.5t-47 -232.5zM68 767q0 163 61 306.5t167.5 250t249 167.5t305.5 61t306 -61t249.5 -167.5 t168 -250t61.5 -306.5t-61.5 -305.5t-168 -249t-249.5 -167.5t-306 -61t-305.5 61t-249 167.5t-167.5 249t-61 305.5z" glyph-name="O" horiz-adv-x="1705" unicode="O"/><glyph d="M266 801q0 -14 19 -15h141q137 0 197.5 96t60.5 194t-39 157t-89 90t-130 31h-141q-18 0 -19 -19v-534zM80 0v1536h342q192 0 319 -131t127 -329.5t-126 -335t-320 -136.5h-143q-12 0 -13 -12v-592h-186z" glyph-name="P" horiz-adv-x="948" unicode="P"/><glyph d="M1296 365q156 173 156 412t-176 415t-424 176q-123 0 -232.5 -47t-238.5 -176t-129 -377q0 -123 47 -232.5t129 -191.5t192 -129t212 -47q186 0 321 80l-154 160q-25 25 -24.5 61.5t29.5 65.5q33 29 67.5 28.5t58.5 -26.5zM1636 768q0 -309 -211 -537l72 -73 q27 -28 27 -64t-30 -64t-66 -28t-62 27l-82 84q-199 -129 -432 -129q-164 0 -306.5 61t-249 167.5t-167.5 249t-61 305.5t61 306.5t167.5 250t249 167.5t305.5 61t306 -61t249.5 -167.5t168 -250t61.5 -305.5z" glyph-name="Q" horiz-adv-x="1705" unicode="Q"/><glyph d="M244 801q0 -14 18 -15h141q139 0 199 97t60 193t-39 156t-89.5 91t-130.5 31h-141q-18 0 -18 -19v-534zM399 604h-143q-12 0 -12 -12v-592h-187v1536h342q194 0 320.5 -132t126.5 -329q0 -139 -63.5 -250.5t-174.5 -171.5q-6 -4 -6 -14l291 -639h-203l-268 592 q-6 12 -23 12z" glyph-name="R" horiz-adv-x="952" unicode="R"/><glyph d="M721 416q0 130 -127 211q-74 47 -160 84t-153 73q-115 63 -164 145.5t-49 186.5q0 188 123.5 312t293.5 124q115 0 211.5 -57t149.5 -149l-164 -84q-27 49 -80.5 78.5t-107.5 29.5q-99 0 -170.5 -69t-71.5 -154q0 -86 30.5 -129.5t67.5 -63.5t149.5 -73.5t178.5 -89.5 q219 -128 219 -377q0 -175 -126 -302.5t-293 -127.5q-166 0 -276.5 84t-127.5 190l178 31q60 -123 219 -123q96 0 173 73.5t77 176.5z" glyph-name="S" horiz-adv-x="966" unicode="S"/><glyph d="M1030 1352h-383q-16 0 -16 -17v-1335h-185v1335q0 16 -14 17h-379v184h977v-184z" glyph-name="T" horiz-adv-x="1083" unicode="T"/><glyph d="M76 1536h184v-1079q0 -118 77 -203.5t194 -85.5t195.5 80.5t78.5 197.5v1090h184v-1104q0 -183 -134 -315.5t-322 -132.5q-189 0 -323 132t-134 322v1098z" glyph-name="U" horiz-adv-x="1067" unicode="U"/><glyph d="M630 328q3 0 3 6l414 1202h194l-545 -1536h-135l-543 1536h197l410 -1202q2 -6 5 -6z" glyph-name="V" horiz-adv-x="1259" unicode="V"/><glyph d="M965 1536l292 -1182q0 -6 5 -6l4 6l288 1182h195l-414 -1536h-149l-293 1124q-4 4 -6 4q-29 -95 -108 -412t-181 -716h-143l-418 1536h194l291 -1182q0 -6 4 -6l4 6l11 49q14 71 55 241.5t66.5 279t50 213t46 189.5t35 142.5t17.5 67.5h154z" glyph-name="W" horiz-adv-x="1787" unicode="W"/><glyph d="M498 766q0 8 -4 12l-469 758h223l358 -575q2 -7 8 -7t11 7l356 575h223l-471 -758q-4 -8 -4 -12t4 -12l469 -754h-221l-358 573q-3 7 -9 7t-8 -7l-358 -573h-223l471 754q2 4 2 12z" glyph-name="X" horiz-adv-x="1230" unicode="X"/><glyph d="M444 0v555l-428 981h203l309 -711q2 -8 8.5 -8t8.5 8l307 711h201l-424 -981v-555h-185z" glyph-name="Y" horiz-adv-x="1071" unicode="Y"/><glyph d="M786 1346q0 6 -8 6h-710v184h970v-131l-725 -1208q-2 -1 -2 -7t8 -6h721v-184h-972v145l716 1194q2 1 2 7z" glyph-name="Z" horiz-adv-x="1107" unicode="Z"/><glyph d="M479 -301h-403v1960h403v-131h-227v-1698h227v-131z" glyph-name="bracketleft" horiz-adv-x="557" unicode="["/><glyph d="M483 -4l-442 1524l109 32l440 -1521z" glyph-name="backslash" horiz-adv-x="630" unicode="\"/><glyph d="M47 -170h227v1698h-227v131h404v-1960h-404v131z" glyph-name="bracketright" horiz-adv-x="499" unicode="]"/><glyph d="M451 1536h131l385 -707l-166 -57l-285 543l-285 -541l-165 57z" glyph-name="asciicircum" horiz-adv-x="1032" unicode="^"/><glyph d="M1296 -131v-115h-1296v115h1296z" glyph-name="underscore" horiz-adv-x="1296" unicode="_"/><glyph d="M449 1135l-394 163l45 105l394 -162z" glyph-name="grave" horiz-adv-x="548" unicode="`"/><glyph d="M242 514q0 -74 27.5 -139.5t74.5 -112.5t112.5 -74.5t139.5 -27.5t138.5 27.5t111.5 74.5t74.5 112.5t27.5 139.5t-27.5 138.5t-74.5 111.5t-111.5 74.5t-138.5 27.5t-139.5 -27.5t-112.5 -74.5t-74.5 -111.5t-27.5 -138.5zM948 1026h174v-1026l-174 76v43 q-154 -135 -363 -135t-364 153.5t-155 376.5q0 222 155.5 374t365.5 152q211 0 361 -135v121z" glyph-name="a" unicode="a"/><glyph d="M958 514q0 74 -27.5 138.5t-74.5 111.5t-112.5 74.5t-139.5 27.5t-138.5 -27.5t-111.5 -74.5t-74.5 -111.5t-27.5 -138.5t27.5 -139.5t74.5 -112.5t111.5 -74.5t138.5 -27.5t139.5 27.5t112.5 74.5t74.5 112.5t27.5 139.5zM78 1436h174v-531q150 135 361 135 t366.5 -152.5t155.5 -373.5t-155.5 -375.5t-367.5 -154.5t-360 135v-43l-174 -78v1438z" glyph-name="b" horiz-adv-x="1214" unicode="b"/><glyph d="M608 160q86 0 170 46t121 126l166 -58q-93 -205 -242 -247.5t-243 -42.5t-190.5 41t-210 153.5t-113.5 335.5q0 222 155.5 374t374.5 152q129 0 237.5 -61t186.5 -154l-137 -104q-45 68 -121 106.5t-158 38.5t-147.5 -27.5t-112.5 -74.5t-74.5 -111.5t-27.5 -138.5 t27.5 -139.5t74.5 -112.5t112.5 -74.5t151.5 -27.5z" glyph-name="c" horiz-adv-x="1138" unicode="c"/><glyph d="M225 514q0 -74 28 -139.5t75 -112.5t112.5 -74.5t139 -27.5t138 27.5t112 74.5t75 112.5t27.5 139.5t-27.5 138.5t-75 111.5t-112 74.5t-138 27.5t-139 -27.5t-112.5 -74.5t-75 -111.5t-28 -138.5zM203.5 138.5q-154.5 154.5 -154.5 375.5t155 373.5t368 152.5t360 -135 v531h174v-1436l-174 76v43q-150 -135 -362 -135t-366.5 154.5z" glyph-name="d" horiz-adv-x="1157" unicode="d"/><glyph d="M367.5 788.5q-93.5 -77.5 -117.5 -196.5h620q0 100 -79.5 187t-204.5 87t-218.5 -77.5zM963 133q-149 -149 -368 -149t-374 153.5t-155 375.5t151 374.5t366 152.5q214 0 342 -146t128 -351v-94h-807q38 -199 161 -244t189 -45q152 0 240 92z" glyph-name="e" horiz-adv-x="1110" unicode="e"/><glyph d="M289 1184q0 115 60.5 182.5t164.5 67.5h246v-146h-201q-96 0 -96 -127v-153h362v-158h-362v-850h-174v850h-240v158h240v176z" glyph-name="f" horiz-adv-x="874" unicode="f"/><glyph d="M260 512q0 -74 27.5 -138.5t75 -111.5t113 -74.5t139 -27.5t138 27.5t111.5 74.5t75 111.5t28 138.5t-28 139.5t-75 112.5t-111.5 74.5t-138 27.5t-139 -27.5t-113 -74.5t-75 -112.5t-27.5 -139.5zM315 -213q97 -117 259 -117q161 0 267.5 106.5t106.5 256.5v88 q-150 -135 -361 -135t-366 152t-155 374t154 376t368 154t360 -135v43l174 76v-991q0 -224 -157 -379.5t-387 -155.5q-118 0 -222 49.5t-178 135.5z" glyph-name="g" horiz-adv-x="1187" unicode="g"/><glyph d="M78 1434h174v-480q115 86 284 86t302 -124.5t133 -294.5v-621h-174v596q0 110 -82.5 191t-190.5 81q-190 0 -231 -93t-41 -169v-606h-174v1434z" glyph-name="h" horiz-adv-x="1050" unicode="h"/><glyph d="M161 1161q-36 0 -61.5 25.5t-25.5 61.5t26.5 60.5t60.5 24.5t60.5 -25.5t26.5 -59.5t-25.5 -60.5t-61.5 -26.5zM74 1024h174v-1024h-174v1024z" glyph-name="i" horiz-adv-x="321" unicode="i"/><glyph d="M70 -498v176q10 4 61 22t51 93v1231h174l-2 -1319q0 -92 -91.5 -147.5t-192.5 -55.5zM269 1161q-36 0 -61.5 25.5t-25.5 61.5t27 60.5t61 24.5t60 -25.5t26 -59.5t-25.5 -60.5t-61.5 -26.5z" glyph-name="j" horiz-adv-x="401" unicode="j"/><glyph d="M258 469q-4 0 -4 -6v-463h-174v1436h174v-834q0 -6 3 -6t9 10l299 418h217l-356 -492l346 -532h-209l-297 461q-4 8 -8 8z" glyph-name="k" horiz-adv-x="782" unicode="k"/><glyph d="M78 1432h174v-1432h-174v1432z" glyph-name="l" horiz-adv-x="331" unicode="l"/><glyph d="M524 868q-272 0 -272 -258v-610h-174v1024l174 -72q113 88 270 88q109 0 203 -46t158 -126q61 80 155.5 126t192.5 46q192 0 325.5 -124.5t133.5 -294.5v-621h-174v596q0 108 -82 190t-190 82t-192.5 -75t-84.5 -177v-616h-170v596q0 110 -82.5 191t-190.5 81z" glyph-name="m" horiz-adv-x="1769" unicode="m"/><glyph d="M797 596q0 110 -82.5 191t-190.5 81q-190 0 -231 -93t-41 -169v-606h-174v1024l174 -72q113 88 283 88t303 -124.5t133 -294.5v-621h-174v596z" glyph-name="n" horiz-adv-x="1050" unicode="n"/><glyph d="M221.5 888q155.5 152 374.5 152t372.5 -153.5t153.5 -372.5t-153 -374.5t-373 -155.5t-375 153.5t-155 376.5q0 222 155.5 374zM242 514q0 -74 27.5 -139.5t74.5 -112.5t112.5 -74.5t139.5 -27.5t138.5 27.5t111.5 74.5t74.5 112.5t27.5 139.5t-27.5 138.5t-74.5 111.5 t-111.5 74.5t-138.5 27.5t-139.5 -27.5t-112.5 -74.5t-74.5 -111.5t-27.5 -138.5z" glyph-name="o" unicode="o"/><glyph d="M958 512q0 74 -27.5 139.5t-74.5 112.5t-112.5 74.5t-139.5 27.5t-138.5 -27.5t-111.5 -74.5t-74.5 -112.5t-27.5 -139.5t27.5 -138.5t74.5 -111.5t111.5 -74.5t138.5 -27.5t139.5 27.5t112.5 74.5t74.5 111.5t27.5 138.5zM252 907q150 135 362 135t366.5 -154.5 t154.5 -375.5t-156 -373.5t-368 -152.5t-359 135v-541h-174v1446l174 -76v-43z" glyph-name="p" horiz-adv-x="1214" unicode="p"/><glyph d="M223 512q0 -74 28 -138.5t75 -111.5t112.5 -74.5t139 -27.5t138 27.5t111.5 74.5t75 111.5t28 138.5t-28 139.5t-75 112.5t-111.5 74.5t-138 27.5t-139 -27.5t-112.5 -74.5t-75 -112.5t-28 -139.5zM1104 -420h-174v541q-150 -135 -361 -135t-366.5 153t-155.5 373 t153.5 375t367.5 155t362 -135v43l174 76v-1446z" glyph-name="q" horiz-adv-x="1157" unicode="q"/><glyph d="M618 864q-179 0 -272.5 -57t-93.5 -201v-606h-174v1024l174 -72q68 50 137 69t229 19v-176z" glyph-name="r" horiz-adv-x="692" unicode="r"/><glyph d="M546.5 65q-86.5 -81 -212.5 -81q-83 0 -160.5 43t-101.5 112l139 97q31 -37 54 -57.5t73 -20.5q49 0 85 33.5t36 80.5q0 106 -215 232q-74 43 -123 97t-49 130q0 135 87 222t201 87t172 -51t74 -78l-133 -116q-23 23 -47.5 47t-72.5 24t-77.5 -28.5t-29.5 -69.5 t28.5 -68.5t71.5 -55.5t93 -59.5t122 -103.5t72 -203q0 -132 -86.5 -213z" glyph-name="s" horiz-adv-x="700" unicode="s"/><glyph d="M340 1323h174v-315h295v-158h-295v-850h-174v850h-297v158h297v315z" glyph-name="t" horiz-adv-x="856" unicode="t"/><glyph d="M74 408v614h174v-590q0 -108 82 -190t190 -82q273 0 273 262v600h174v-1022l-174 76q-118 -92 -285 -92t-300.5 125t-133.5 299z" glyph-name="u" horiz-adv-x="1040" unicode="u"/><glyph d="M29 1024h188l246 -748l248 746l188 2l-364 -1024h-146z" glyph-name="v" horiz-adv-x="927" unicode="v"/><glyph d="M33 1024h186l236 -748l235 748h137l232 -748l233 748h187l-349 -1024h-149l-225 700l-228 -700h-147z" glyph-name="w" horiz-adv-x="1515" unicode="w"/><glyph d="M217 0h-207l324 510l-330 516h211l221 -354l223 352h207l-325 -514l323 -510h-207l-221 346z" glyph-name="x" horiz-adv-x="874" unicode="x"/><glyph d="M383 -422h-180l155 430l-354 1016h186l259 -762l264 766h182z" glyph-name="y" horiz-adv-x="897" unicode="y"/><glyph d="M82 0v115l485 747h-485v162h696v-133l-473 -729h488v-162h-711z" glyph-name="z" horiz-adv-x="870" unicode="z"/><glyph d="M344 1069v260q0 127 25 202t83 111t104 45t132 9v-164q-98 -10 -138 -65.5t-40 -172.5v-262q0 -151 -32 -204.5t-74 -80.5t-80 -37t-37.5 -14t38.5 -13t79.5 -37t73.5 -80.5t32 -205.5v-262q0 -117 40 -172t138 -65l-2 -164q-124 0 -161.5 16.5t-59.5 28.5 q-72 45 -96.5 120t-24.5 201v261q0 135 -47 199.5t-154 74.5v195q106 10 153.5 75.5t47.5 200.5z" glyph-name="braceleft" horiz-adv-x="821" unicode="{"/><glyph d="M78 1577h158v-1593h-158v1593z" glyph-name="bar" horiz-adv-x="315" unicode="|"/><glyph d="M487 324v-261q0 -127 -24.5 -201.5t-95.5 -119.5q-73 -38 -126 -41.5t-96 -3.5l-2 164q98 10 138.5 65.5t40.5 171.5v262q0 152 43.5 225t171.5 107q8 0 8 4t-38 13t-80 37t-73.5 81.5t-31.5 204.5v262q0 117 -40 172.5t-139 65.5v164q86 0 132.5 -9t104.5 -45t82.5 -111 t24.5 -202v-260q0 -135 47.5 -200.5t153.5 -75.5v-195q-106 -10 -153.5 -74.5t-47.5 -199.5z" glyph-name="braceright" horiz-adv-x="856" unicode="}"/><glyph d="M362 535q-129 0 -223 -146l-67 68q0 14 16 48t78.5 94t195.5 67h27q57 -2 118.5 -27t123 -52.5t120 -52t107.5 -26.5h8q106 0 183 72q37 33 61 73l68 -67q0 -16 -17.5 -51t-82.5 -96.5t-208 -61.5q-81 0 -247 76t-232 82h-29z" glyph-name="asciitilde" horiz-adv-x="1249" unicode="~"/><glyph d="M78 1445q0 38 26.5 64.5t64.5 26.5t65.5 -26.5t27.5 -64.5t-27.5 -65.5t-65.5 -27.5t-64.5 27.5t-26.5 65.5zM262 1257v-1265h-184v1265h184z" glyph-name="exclamdown" horiz-adv-x="339" unicode="¡"/><glyph d="M233 513q0 -120 68 -211t176 -126v674q-109 -35 -176.5 -126t-67.5 -211zM176.5 846q119.5 146 300.5 182v186h174v-178q197 -28 361 -211l-138 -104q-77 114 -223 139v-696q78 14 143.5 57t96.5 111l166 -58q-53 -121 -162 -196.5t-244 -89.5v-166h-174v174 q-181 36 -300.5 182t-119.5 334t119.5 334z" glyph-name="cent" horiz-adv-x="1122" unicode="¢"/><glyph d="M586 368q0 -70 -80 -180h205q121 0 178 56.5t59 171.5l182 -6q0 -232 -125 -321t-352 -89h-491v186h67q108 0 139 67t31 115q0 80 -69.5 223.5t-77.5 143.5h-131v133h74q-43 168 -43 243q0 74 34.5 158.5t132 183.5t305.5 99t355 -139l-143 -119q-58 72 -195 72t-219 -78 t-82 -185t21.5 -170t23.5 -63h381v-135h-326l60 -100q86 -142 86 -267z" glyph-name="sterling" horiz-adv-x="1196" unicode="£"/><glyph d="M413.5 918q-94.5 -98 -94.5 -226t94.5 -222.5t224.5 -94.5t224 94t94 225.5t-95 226.5t-224 95t-223.5 -98zM254 436q-82 124 -82 251t88 269l12 21l-198 197l82 81l196 -198l21 12q74 41 135 63.5t132 22.5t131 -23.5t126 -62.5l21 -12l198 196l82 -79l-194 -195l12 -21 q88 -133 88 -258t-84 -266l-12 -20l194 -195l-80 -82l-194 197l-23 -17q-115 -88 -250 -88t-284 88l-21 13l-194 -193l-80 82l192 195z" glyph-name="currency" horiz-adv-x="1275" unicode="¤"/><glyph d="M1192 586h-459l-12 -31v-555h-184v555l-15 31h-467v135h410l-98 225h-312v135h252l-198 455h198l314 -711q2 -8 8 -8t8 8l307 711h203l-199 -455h244v-135h-303l-96 -225h399v-135z" glyph-name="yen" horiz-adv-x="1251" unicode="¥"/><glyph d="M78 627h158v-650h-158v650zM78 1579h158v-649h-158v649z" glyph-name="brokenbar" horiz-adv-x="313" unicode="¦"/><glyph d="M314 375.5q52 -54.5 98 -72.5l307 -129l29 16q143 80 143 219t-205 222l-272 108l-29 -22q-57 -49 -90 -93t-33 -119t52 -129.5zM314 -451q-131 55 -191 132l125 147q20 -16 83 -71.5t197 -55.5q91 0 139 25.5t67.5 52t19.5 70.5t-24.5 82t-71 69t-110 56.5t-138.5 56.5 l-41 16q-207 73 -255 183t-48 172q0 109 36 169.5t134 143.5l53 45q-86 59 -108.5 117.5t-22.5 128.5q0 147 120.5 241t299.5 94q180 0 276 -46t131 -74l-127 -183q-23 14 -47.5 32.5t-73 45.5t-112.5 27t-105 -10.5t-72.5 -32t-50 -55t-18.5 -78.5t27.5 -77t80 -60.5 t126 -61.5t165.5 -78q152 -63 237 -145t85 -196t-52.5 -191t-207.5 -164q72 -53 97.5 -107.5t25.5 -133.5t-31 -140.5t-114.5 -131t-228.5 -69.5q-144 0 -275 55z" glyph-name="section" horiz-adv-x="1167" unicode="§"/><glyph d="M482 1196q-36 0 -61.5 25.5t-25.5 61.5t26.5 60.5t60.5 24.5t60.5 -25.5t26.5 -59.5t-25.5 -60.5t-61.5 -26.5zM161 1196q-36 0 -61.5 25.5t-25.5 61.5t26.5 60.5t60.5 24.5t60.5 -25.5t26.5 -59.5t-25.5 -60.5t-61.5 -26.5z" glyph-name="dieresis" horiz-adv-x="645" unicode="¨"/><glyph d="M855 272q-107 0 -193.5 38t-151 101.5t-100 147.5t-35.5 228t138.5 280.5t336.5 136.5q143 0 204.5 -45t71.5 -53l-55 -96q-91 84 -234 84t-248.5 -103.5t-105.5 -248.5t108 -252t246 -107t230 80l68 -90q-18 -24 -95.5 -62.5t-184.5 -38.5zM353.5 283 q187.5 -187 455.5 -187q133 0 252 50.5t208 137.5t140 203.5t51 250.5t-51 251t-140 204t-208 137t-253 50t-251 -50t-254 -187t-137 -405t187.5 -455zM66 738q0 153 59 288t160.5 236.5t236.5 160t289 58.5t289 -58.5t235.5 -160t157.5 -236.5t57 -288t-57 -288 t-157.5 -236t-235.5 -159.5t-289 -58.5t-289 58.5t-236.5 159.5t-160.5 236t-59 288z" glyph-name="copyright" horiz-adv-x="1617" unicode="©"/><glyph d="M253.5 961q69.5 -68 167.5 -68q99 0 170 67.5t71 169.5t-70.5 171t-170.5 69t-168.5 -70t-68.5 -170q0 -101 69.5 -169zM662 1466h116v-692l-116 62v30q-101 -92 -245 -92t-247.5 105t-103.5 253.5t104.5 251.5t246.5 103t245 -92v71z" glyph-name="ordfeminine" horiz-adv-x="845" unicode="ª"/><glyph d="M594 154l-256 399l256 397l113 -73l-209 -326l209 -324zM299 154l-256 399l256 397l113 -73l-209 -326l209 -324z" glyph-name="guillemotleft" horiz-adv-x="770" unicode="«"/><glyph d="M1114 160h-135v514h-936v135h1071v-649z" glyph-name="logicalnot" horiz-adv-x="1157" unicode="¬"/><glyph d="M737 1108v-315q0 -6 11 -7h83q82 0 118 56t36 114.5t-36 111t-118 52.5h-83q-11 0 -11 -12zM829 678h-84q-8 0 -8 -8v-357h-108v914h200q117 0 191 -78t74 -178q0 -191 -142 -264q-4 0 -4 -9l172 -383h-114l-162 355q-6 8 -15 8zM168 768q0 -141 53 -266t145.5 -217 t216.5 -145.5t265 -53.5t268 53.5t221.5 145.5t149.5 217t55 266t-55 266t-149.5 217t-221.5 145.5t-268 53.5t-265 -53.5t-216.5 -145.5t-145.5 -217t-53 -266zM66 768q0 160 62 303t168.5 249.5t249 169t305.5 62.5t305 -62.5t248.5 -169t167 -249.5t60.5 -303t-60.5 -303 t-167 -249.5t-248.5 -169t-305 -62.5t-305.5 62.5t-249 169t-168.5 249.5t-62 303z" glyph-name="registered" horiz-adv-x="1699" unicode="®"/><glyph d="M721 1311h-643v135h643v-135z" glyph-name="macron" horiz-adv-x="800" unicode="¯"/><glyph d="M158 1153q0 -49 18.5 -92t51 -76t75.5 -51.5t92 -18.5t92 18.5t76 51.5t51.5 76t18.5 92t-18.5 92t-51.5 76t-76 51.5t-92 18.5t-92 -18.5t-75.5 -51.5t-51 -76t-18.5 -92zM66 1153q0 68 25.5 128t70.5 105.5t105.5 71t128 25.5t128 -25.5t105.5 -71t70.5 -105.5 t25.5 -128t-25.5 -128t-70.5 -105.5t-105.5 -71t-128 -25.5t-128 25.5t-105.5 71t-70.5 105.5t-25.5 128z" glyph-name="degree" horiz-adv-x="792" unicode="°"/><glyph d="M1137 61h-1080v136h1080v-136zM530 254v334h-473v127h473v344h127v-344h480v-127h-480v-334h-127z" glyph-name="plusminus" horiz-adv-x="1191" unicode="±"/><glyph d="M667 614h-565v133q15 16 54 51t89 81q305 281 305 389t-97 151t-176 -14q-45 -33 -64 -86l-105 34q28 85 103 140q74 54 150 54q200 0 278 -173q22 -52 22 -110q0 -143 -250 -377q-66 -62 -123 -114l-30 -27q-16 -12 -16 -16t25 -4h400v-112z" glyph-name="uni00B2" horiz-adv-x="770" unicode="²"/><glyph d="M660 897q0 -119 -85 -205t-198 -86q-112 1 -194 67t-98 165l110 18q14 -58 49 -89q62 -52 112 -52q51 1 83 15q69 31 96 96q15 32 15 70q0 78 -48 141q-48 62 -120 66h-8q-6 0 -8 1l-5 95q14 11 29 21q60 42 60 116t-45 99q-16 9 -48 9q-52 0 -100 -64l-94 57 q15 35 60 69t80 41t68 7q66 0 127 -52q62 -57 62 -151t-63 -180q163 -85 163 -274z" glyph-name="uni00B3" horiz-adv-x="745" unicode="³"/><glyph d="M55 1241l394 162l45 -105l-394 -163z" glyph-name="acute" horiz-adv-x="552" unicode="´"/><glyph d="M252 -438h-174v1538h174v-676q0 -110 82.5 -191t188.5 -81q107 0 190.5 78t83.5 184v686h174v-1100l-174 68q-119 -93 -270.5 -93t-274.5 93v-506z" glyph-name="uni00B5" horiz-adv-x="1050" unicode="µ"/><glyph d="M252 -438h-174v1538h174v-676q0 -110 82.5 -191t188.5 -81q107 0 190.5 78t83.5 184v686h174v-1100l-174 68q-119 -93 -270.5 -93t-274.5 93v-506z" glyph-name="uni00B5" horiz-adv-x="1050" unicode="μ"/><glyph d="M532 -436v1179q-217 4 -348 98t-131 253q0 297 199 330.5t305 33.5h563v-1894h-184v1716h-219v-1716h-185z" glyph-name="paragraph" horiz-adv-x="1175" unicode="¶"/><glyph d="M155 690q-36 0 -61.5 25.5t-25.5 61.5t26.5 60.5t60.5 24.5t60.5 -25.5t26.5 -59.5t-25.5 -60.5t-61.5 -26.5z" glyph-name="periodcentered" horiz-adv-x="309" unicode="·"/><glyph d="M469 -242q0 -105 -70 -154.5t-149 -49.5t-137 51q-29 23 -56 51l58 45q52 -37 112 -37t90.5 21.5t30.5 60.5t-24.5 59.5t-51.5 20.5l-79 -6l-60 30l107 150h88l-80 -104l67 6q66 0 110 -41t44 -103z" glyph-name="cedilla" horiz-adv-x="528" unicode="¸"/><glyph d="M172 1421q0 16 -14 16h-124v98h250v-921h-112v807z" glyph-name="uni00B9" horiz-adv-x="313" unicode="¹"/><glyph d="M66 1128.5q0 73.5 27.5 137t75.5 111.5t113.5 76t139.5 28t137.5 -28t111.5 -76t75.5 -111.5t27.5 -137t-27.5 -139t-75.5 -114t-111.5 -76t-137.5 -27.5t-139.5 27.5t-113.5 76t-75.5 114t-27.5 139zM184 1128.5q0 -49.5 18.5 -93.5t50.5 -75.5t76 -50t93 -18.5t92 18.5 t75 50t50 75.5t18 93.5t-18 92.5t-50 74.5t-75 50t-92 18.5t-93 -18.5t-76 -50t-50.5 -74.5t-18.5 -92.5z" glyph-name="ordmasculine" horiz-adv-x="841" unicode="º"/><glyph d="M412 553q0 -4 -6.5 -13.5t-32 -47t-76.5 -117.5t-141 -221l-113 73l209 324l-209 326l113 73zM707 553q0 -4 -6.5 -13.5t-32 -47t-76.5 -117.5t-141 -221l-113 73l209 324l-209 326l113 73z" glyph-name="guillemotright" horiz-adv-x="806" unicode="»"/><glyph d="M891 293h289q10 0 10 10v453q0 4 -4 4q-52 -73 -299 -459q0 -8 4 -8zM1411 174h-94q-8 0 -8 -8v-166h-119v166q0 8 -8 8h-428v111l456 714h99v-698q0 -8 8 -8h94v-119zM391 31l440 1521l109 -32l-442 -1524zM186 1415q0 19 -14 19h-133v106h268v-999h-121v874z" glyph-name="onequarter" horiz-adv-x="1513" unicode="¼"/><glyph d="M391 31l440 1521l109 -32l-442 -1524zM186 1415q0 19 -14 19h-133v106h268v-999h-121v874zM1487 0h-608v141q16 18 58 56.5t146 134.5t190.5 198t86.5 175t-54.5 126.5t-122.5 53.5t-116.5 -35t-69.5 -92l-112 37q31 92 111.5 150.5t161.5 58.5q142 0 232.5 -90.5 t90.5 -205.5t-109 -243.5t-295 -294.5l-30 -29q-19 -16 -19 -19t27 -3h432v-119z" glyph-name="onehalf" horiz-adv-x="1572" unicode="½"/><glyph d="M1110 293h289q10 0 10 10v453q0 4 -4 4q-29 -40 -299 -459q0 -8 4 -8zM1630 174h-94q-8 0 -8 -8v-166h-119v166q0 8 -8 8h-428v111l457 714h98v-698q0 -8 8 -8h94v-119zM610 31l441 1521l108 -32l-442 -1524zM455 1297q0 122 -68 122t-89.5 -17.5t-49.5 -51.5l-103 61 q14 27 46 57t71.5 50t91.5 20t87.5 -14.5t65.5 -42t48 -65.5t18 -85t-10 -96t-57 -111q176 -88 176 -293q0 -128 -90.5 -220.5t-211.5 -92.5t-211 73t-108 177l119 18q16 -66 67 -108.5t107 -42.5q94 0 151.5 57.5t57.5 140.5t-52 147.5t-130 72.5h-16l-7 102q14 10 55.5 39 t41.5 103z" glyph-name="threequarters" horiz-adv-x="1716" unicode="¾"/><glyph d="M541 1452q0 -39 -27 -65.5t-65.5 -26.5t-65.5 26.5t-27 65.5t27 65.5t65.5 26.5t65.5 -26.5t27 -65.5zM250 354q0 -178 188 -178q94 0 146.5 57.5t70.5 75.5l136 -127q-41 -71 -173 -151t-297 -25t-211.5 157.5t-46.5 189.5t29 150.5t72 115t92 94.5t121 115t72 155 t-54 201l162 65q78 -98 78 -202q0 -105 -28.5 -178.5t-71.5 -130t-92.5 -100.5t-121 -114t-71.5 -170z" glyph-name="questiondown" horiz-adv-x="856" unicode="¿"/><glyph d="M632 1202q-3 0 -5 -6l-221 -651q-2 -2 -2 -9t10 -8h432q14 0 14 11l-225 657q0 6 -3 6zM909 344h-557q-18 0 -20 -14l-117 -330h-192l538 1536h135l543 -1536h-197l-114 330q-4 14 -19 14zM805 1544l-393 164l45 104l393 -161z" glyph-name="Agrave" horiz-adv-x="1263" unicode="À"/><glyph d="M632 1202q-3 0 -5 -6l-221 -651q-2 -2 -2 -9t10 -8h432q14 0 14 11l-225 657q0 6 -3 6zM909 344h-557q-18 0 -20 -14l-117 -330h-192l538 1536h135l543 -1536h-197l-114 330q-4 14 -19 14zM412 1651l393 161l45 -104l-393 -164z" glyph-name="Aacute" horiz-adv-x="1263" unicode="Á"/><glyph d="M632 1202q-3 0 -5 -6l-221 -651q-2 -2 -2 -9t10 -8h432q14 0 14 11l-225 657q0 6 -3 6zM909 344h-557q-18 0 -20 -14l-117 -330h-192l538 1536h135l543 -1536h-197l-114 330q-4 14 -19 14zM868 1575q-28 0 -237 94q-218 -99 -236 -98l-4 115l240 100l241 -96z" glyph-name="Acircumflex" horiz-adv-x="1263" unicode="Â"/><glyph d="M632 1202q-3 0 -5 -6l-221 -651q-2 -2 -2 -9t10 -8h432q14 0 14 11l-225 657q0 6 -3 6zM909 344h-557q-18 0 -20 -14l-117 -330h-192l538 1536h135l543 -1536h-197l-114 330q-4 14 -19 14zM514 1780q-87 0 -170 -64l-55 74q0 70 51 104t115 35h14q57 -1 134 -31 q78 -30 128 -30q122 0 182 63l60 -73q0 -96 -111 -132q-29 -8 -74 -8t-130 30q-86 30 -130 32h-14z" glyph-name="Atilde" horiz-adv-x="1263" unicode="Ã"/><glyph d="M632 1202q-3 0 -5 -6l-221 -651q-2 -2 -2 -9t10 -8h432q14 0 14 11l-225 657q0 6 -3 6zM909 344h-557q-18 0 -20 -14l-117 -330h-192l538 1536h135l543 -1536h-197l-114 330q-4 14 -19 14zM792 1606q-36 0 -62 26t-26 61q0 37 28 61q26 24 60 24t60 -26t27 -60t-25 -60 t-62 -26zM470 1606q-36 0 -62 26t-25 61q0 37 27 61q26 24 60 24t60 -26t27 -60t-25 -60t-62 -26z" glyph-name="Adieresis" horiz-adv-x="1263" unicode="Ä"/><glyph d="M632 1202q-3 0 -5 -6l-221 -651q-2 -2 -2 -9t10 -8h432q14 0 14 11l-225 657q0 6 -3 6zM909 344h-557q-18 0 -20 -14l-117 -330h-192l538 1536h135l543 -1536h-197l-114 330q-4 14 -19 14zM631 1587q47 -1 47 45q0 22 -13 36t-34 13q-47 0 -47 -47t47 -47zM631 1550 q-37 0 -61 25t-24 61t25 60t60 24t61 -26t25 -60q-1 -36 -25 -60t-61 -24z" glyph-name="Aring" horiz-adv-x="1263" unicode="Å"/><glyph d="M426 536q0 -7 10 -8h318v803l-2 17q0 6 -4 6t-5 -6l-315 -803q-2 -2 -2 -9zM1507 0h-753v344h-379q-18 0 -21 -14l-139 -330h-192l593 1536h891v-184h-557q-12 0 -12 -9v-471q0 -8 12 -8h557v-184h-557q-12 0 -12 -10v-473q0 -12 12 -13h557v-184z" glyph-name="AE" horiz-adv-x="1572" unicode="Æ"/><glyph d="M74 767q0 161 62 303q129 295 419 420q143 62 279 62q296 0 466 -128q37 -28 50 -38l-111 -151q-161 133 -383 133q-126 0 -236 -48t-190 -130t-126 -192t-46 -228t50 -226t134 -192t193 -134t225 -50q215 0 379 133l109 -154q-199 -166 -488 -163q-47 0 -92 5l-72 -93 l68 6q66 0 110 -41t44 -103q1 -104 -69 -154t-150 -50t-138 51q-29 23 -55 51l57 45q52 -37 139 -37q33 0 64 22t31 60t-25 59q-25 20 -51 21l-80 -6l-59 30l106 150h12q-226 49 -394 215q-108 107 -170 249t-62 303z" glyph-name="Ccedilla" horiz-adv-x="1423" unicode="Ç"/><glyph d="M838 0h-754v1536h754v-184h-557q-12 0 -13 -9v-471q0 -8 13 -8h557v-184h-557q-12 0 -13 -10v-473q0 -12 13 -13h557v-184zM635 1544l-393 164l45 104l393 -161z" glyph-name="Egrave" horiz-adv-x="921" unicode="È"/><glyph d="M838 0h-754v1536h754v-184h-557q-12 0 -13 -9v-471q0 -8 13 -8h557v-184h-557q-12 0 -13 -10v-473q0 -12 13 -13h557v-184zM242 1651l393 161l45 -104l-393 -164z" glyph-name="Eacute" horiz-adv-x="921" unicode="É"/><glyph d="M838 0h-754v1536h754v-184h-557q-12 0 -13 -9v-471q0 -8 13 -8h557v-184h-557q-12 0 -13 -10v-473q0 -12 13 -13h557v-184zM696 1575q-28 0 -237 94q-218 -99 -236 -98l-4 115l240 100l241 -96z" glyph-name="Ecircumflex" horiz-adv-x="921" unicode="Ê"/><glyph d="M838 0h-754v1536h754v-184h-557q-12 0 -13 -9v-471q0 -8 13 -8h557v-184h-557q-12 0 -13 -10v-473q0 -12 13 -13h557v-184zM622 1606q-36 0 -62 26t-26 61q0 37 28 61q26 24 60 24t60 -26t27 -60t-25 -60t-62 -26zM300 1606q-36 0 -62 26t-25 61q0 37 27 61q26 24 60 24 t60 -26t27 -60t-25 -60t-62 -26z" glyph-name="Edieresis" horiz-adv-x="921" unicode="Ë"/><glyph d="M80 0v1534h184v-1534h-184zM352 1544l-393 164l45 104l393 -161z" glyph-name="Igrave" horiz-adv-x="346" unicode="Ì"/><glyph d="M80 0v1534h184v-1534h-184zM-41 1651l393 161l45 -104l-393 -164z" glyph-name="Iacute" horiz-adv-x="346" unicode="Í"/><glyph d="M80 0v1534h184v-1534h-184zM414 1575q-26 0 -238 94q-218 -99 -235 -98l-4 115l239 100l242 -96z" glyph-name="Icircumflex" horiz-adv-x="346" unicode="Î"/><glyph d="M80 0v1534h184v-1534h-184zM339 1606q-35 0 -61 26t-26 61q0 37 27 61t61 24t60 -26t26 -60t-26 -60t-61 -26zM17 1606q-35 0 -61 26t-26 61q0 37 27 61t61 24t60 -26t26 -60t-25 -60q-26 -26 -62 -26z" glyph-name="Idieresis" horiz-adv-x="346" unicode="Ï"/><glyph d="M772 637h-262v-440q0 -12 12 -13h275q235 0 407 173.5t172 412t-126 364.5t-232.5 172t-224.5 46h-271q-12 0 -12 -9v-522h262v-184zM326 0v637h-265v184h265v715h471q160 0 299 -60.5t242.5 -165t163 -243.5t59.5 -299t-59.5 -300t-163 -243.5t-243 -164t-298.5 -60.5 h-471z" glyph-name="Eth" horiz-adv-x="1622" unicode="Ð"/><glyph d="M80 0v1534h227l746 -1245q2 -6 5 -6t3 6v1247h184v-1536h-229l-742 1239q-4 6 -7 6t-3 -8v-1237h-184zM547 1780q-87 0 -170 -64l-55 74q0 70 51 104t114 35h15q54 -1 134 -31q79 -30 128 -30q122 0 182 63l60 -73q0 -96 -111 -132q-29 -8 -74 -8t-130 30q-86 30 -130 32 h-14z" glyph-name="Ntilde" horiz-adv-x="1327" unicode="Ñ"/><glyph d="M252 769q0 -123 47 -233t129 -192t192 -129t234 -47t232 47t190 129t129 192t47 234q0 246 -176 422t-424 176q-123 0 -232 -47q-224 -95 -321 -319q-47 -108 -47 -233zM68 767q0 163 61 306q124 291 417 418q142 61 305 61t306 -61q292 -124 418 -418q61 -143 61 -306 t-61 -305q-125 -291 -418 -417q-143 -61 -306 -61t-305 61t-248 167t-168 250q-62 142 -62 305zM1026 1544l-393 164l45 104l393 -161z" glyph-name="Ograve" horiz-adv-x="1705" unicode="Ò"/><glyph d="M252 769q0 -123 47 -233t129 -192t192 -129t234 -47t232 47t190 129t129 192t47 234q0 246 -176 422t-424 176q-123 0 -232 -47q-224 -95 -321 -319q-47 -108 -47 -233zM68 767q0 163 61 306q124 291 417 418q142 61 305 61t306 -61q292 -124 418 -418q61 -143 61 -306 t-61 -305q-125 -291 -418 -417q-143 -61 -306 -61t-305 61t-248 167t-168 250q-62 142 -62 305zM633 1651l393 161l45 -104l-393 -164z" glyph-name="Oacute" horiz-adv-x="1705" unicode="Ó"/><glyph d="M252 769q0 -123 47 -233t129 -192t192 -129t234 -47t232 47t190 129t129 192t47 234q0 246 -176 422t-424 176q-123 0 -232 -47q-224 -95 -321 -319q-47 -108 -47 -233zM68 767q0 163 61 306q124 291 417 418q142 61 305 61t306 -61q292 -124 418 -418q61 -143 61 -306 t-61 -305q-125 -291 -418 -417q-143 -61 -306 -61t-305 61t-248 167t-168 250q-62 142 -62 305zM1090 1575q-26 0 -238 94q-218 -99 -236 -98l-4 115l240 100l242 -96z" glyph-name="Ocircumflex" horiz-adv-x="1705" unicode="Ô"/><glyph d="M252 769q0 -123 47 -233t129 -192t192 -129t234 -47t232 47t190 129t129 192t47 234q0 246 -176 422t-424 176q-123 0 -232 -47q-224 -95 -321 -319q-47 -108 -47 -233zM68 767q0 163 61 306q124 291 417 418q142 61 305 61t306 -61q292 -124 418 -418q61 -143 61 -306 t-61 -305q-125 -291 -418 -417q-143 -61 -306 -61t-305 61t-248 167t-168 250q-62 142 -62 305zM735 1780q-87 0 -170 -64l-55 74q0 70 51 104t115 35h14q57 -1 134 -31q78 -30 128 -30q123 0 183 63l59 -73q0 -98 -111 -132q-29 -8 -74 -8t-130 30q-84 30 -129 32h-15z" glyph-name="Otilde" horiz-adv-x="1705" unicode="Õ"/><glyph d="M252 769q0 -123 47 -233t129 -192t192 -129t234 -47t232 47t190 129t129 192t47 234q0 246 -176 422t-424 176q-123 0 -232 -47q-224 -95 -321 -319q-47 -108 -47 -233zM68 767q0 163 61 306q124 291 417 418q142 61 305 61t306 -61q292 -124 418 -418q61 -143 61 -306 t-61 -305q-125 -291 -418 -417q-143 -61 -306 -61t-305 61t-248 167t-168 250q-62 142 -62 305zM1013 1606q-36 0 -62 26q-25 26 -25 61q0 37 26 61t61 24t61 -26t26 -60t-26 -60t-61 -26zM691 1606q-35 0 -61 26t-26 61q0 37 27 61t61 24t60 -26t26 -60t-25 -60 q-26 -26 -62 -26z" glyph-name="Odieresis" horiz-adv-x="1705" unicode="Ö"/><glyph d="M834 113l-316 317l-319 -319l-90 90l319 317l-311 311l90 91l311 -312l318 320l90 -90l-320 -320l318 -315z" glyph-name="multiply" horiz-adv-x="1034" unicode="×"/><glyph d="M848 1368q-123 0 -232.5 -47t-238.5 -176t-129 -377q0 -185 103 -336.5t270 -218.5l331 1145q-62 10 -104 10zM879 168q94 0 202.5 47t190.5 129t129 191t47 219q0 203 -107 355t-280 218l-334 -1147q58 -12 152 -12zM848 -16q-80 0 -172 18l-27 -100l-119 -2l37 135 q-223 86 -363.5 285t-140.5 448q0 162 61.5 305.5t168 250t249 167.5t306.5 61q78 0 156 -16l34 111h121l-45 -142q230 -84 374 -286.5t144 -450.5q0 -164 -61.5 -306.5t-168 -249t-249.5 -167.5t-305 -61z" glyph-name="Oslash" horiz-adv-x="1695" unicode="Ø"/><glyph d="M76 1536h184v-1079q0 -118 78 -205q78 -86 194 -85t194 80q77 79 79 199v1090h184v-1104q0 -183 -136 -317q-136 -133 -323 -132q-186 1 -320 133t-134 322v1098zM707 1544l-394 164l45 104l394 -161z" glyph-name="Ugrave" horiz-adv-x="1067" unicode="Ù"/><glyph d="M76 1536h184v-1079q0 -118 78 -205q78 -86 194 -85t194 80q77 79 79 199v1090h184v-1104q0 -183 -136 -317q-136 -133 -323 -132q-186 1 -320 133t-134 322v1098zM313 1651l394 161l45 -104l-394 -164z" glyph-name="Uacute" horiz-adv-x="1067" unicode="Ú"/><glyph d="M76 1536h184v-1079q0 -118 78 -205q78 -86 194 -85t194 80q77 79 79 199v1090h184v-1104q0 -183 -136 -317q-136 -133 -323 -132q-186 1 -320 133t-134 322v1098zM770 1575q-26 0 -238 94q-218 -99 -235 -98l-4 115l239 100l242 -96z" glyph-name="Ucircumflex" horiz-adv-x="1067" unicode="Û"/><glyph d="M76 1536h184v-1079q0 -118 78 -205q78 -86 194 -85t194 80q77 79 79 199v1090h184v-1104q0 -183 -136 -317q-136 -133 -323 -132q-186 1 -320 133t-134 322v1098zM693 1606q-35 0 -61 26t-26 61q0 37 27 61t61 24t60 -26t26 -60t-25 -60q-26 -26 -62 -26zM372 1606 q-36 0 -62 26t-26 61q0 37 28 61q26 24 60 24t60 -26t27 -60t-25 -60t-62 -26z" glyph-name="Udieresis" horiz-adv-x="1067" unicode="Ü"/><glyph d="M444 0v555l-428 981h203l309 -711q2 -8 8 -8t9 8l307 711h201l-424 -981v-555h-185zM315 1651l394 161l45 -104l-394 -164z" glyph-name="Yacute" horiz-adv-x="1071" unicode="Ý"/><glyph d="M281 1071q-18 0 -19 -14v-543q2 -10 19 -10h141q139 0 198.5 97t59.5 193t-39 156t-89 90.5t-130 30.5h-141zM78 0v1536h184v-283h156q193 0 319.5 -130.5t126.5 -329.5t-125.5 -335t-320.5 -136h-144q-12 0 -12 -13v-309h-184z" glyph-name="Thorn" horiz-adv-x="944" unicode="Þ"/><glyph d="M688 1112q0 151 -89 196.5t-169 45.5h-149q-18 0 -19 -19v-1335h-184v1536h348q198 0 322 -114t124 -291t-49 -235t-69 -83q111 -57 167 -159t56 -214q0 -207 -123.5 -323.5t-323.5 -116.5h-163v182h168q139 0 198.5 78.5t59.5 151.5q0 127 -93 197.5t-213 70.5h-125v184 h5h29l83 2q114 14 161.5 90.5t47.5 155.5z" glyph-name="germandbls" horiz-adv-x="1056" unicode="ß"/><glyph d="M345 261q103 -103 251 -102t251 104t102 251t-104 251t-251 102t-250 -103t-102 -251t103 -252zM948 1026h174v-1026l-174 76v43q-156 -137 -364 -136t-364 155q-156 156 -155 377t156 373t365 152t362 -135v121zM768 1135l-393 163l45 105l393 -162z" glyph-name="agrave" unicode="à"/><glyph d="M345 261q103 -103 251 -102t251 104t102 251t-104 251t-251 102t-250 -103t-102 -251t103 -252zM948 1026h174v-1026l-174 76v43q-156 -137 -364 -136t-364 155q-156 156 -155 377t156 373t365 152t362 -135v121zM375 1241l393 162l45 -105l-393 -163z" glyph-name="aacute" unicode="á"/><glyph d="M345 261q103 -103 251 -102t251 104t102 251t-104 251t-251 102t-250 -103t-102 -251t103 -252zM948 1026h174v-1026l-174 76v43q-156 -137 -364 -136t-364 155q-156 156 -155 377t156 373t365 152t362 -135v121zM831 1165q-28 0 -237 95q-217 -99 -236 -99l-4 115 l240 100l242 -96z" glyph-name="acircumflex" unicode="â"/><glyph d="M345 261q103 -103 251 -102t251 104t102 251t-104 251t-251 102t-250 -103t-102 -251t103 -252zM948 1026h174v-1026l-174 76v43q-156 -137 -364 -136t-364 155q-156 156 -155 377t156 373t365 152t362 -135v121zM477 1370q-83 0 -170 -63l-55 73q0 70 51 105t115 35h14 q50 0 134 -31q83 -31 128 -31q122 0 183 64l59 -74q0 -100 -111 -131q-29 -8 -72 -8q-43 1 -133 31t-128 30h-15z" glyph-name="atilde" unicode="ã"/><glyph d="M345 261q103 -103 251 -102t251 104t102 251t-104 251t-251 102t-250 -103t-102 -251t103 -252zM948 1026h174v-1026l-174 76v43q-156 -137 -364 -136t-364 155q-156 156 -155 377t156 373t365 152t362 -135v121zM755 1368q35 0 61 -26t26 -60t-26 -60t-61 -26 q-36 0 -62 26q-25 26 -25 62t26 60t61 24zM433 1196q-35 0 -61 26t-26 62t27 60t61 24t60 -26t26 -60t-26 -60t-61 -26z" glyph-name="adieresis" unicode="ä"/><glyph d="M345 261q103 -103 251 -102t251 104t102 251t-104 251t-251 102t-250 -103t-102 -251t103 -252zM948 1026h174v-1026l-174 76v43q-156 -137 -364 -136t-364 155q-156 156 -155 377t156 373t365 152t362 -135v121zM594 1178q47 0 47 46q0 22 -13 34q-13 14 -35 14t-34 -14 t-12 -33q0 -47 47 -47zM594 1141q-36 1 -60 25t-24 60t25 60t59 25q34 0 60 -26q26 -27 26 -61t-24 -58t-62 -25z" glyph-name="aring" unicode="å"/><glyph d="M1259 789q-94 -77 -118 -197h620q0 100 -79.5 187t-203.5 87q-125 0 -219 -77zM1490 -16q-214 0 -368 143v-127l-174 76v43q-154 -135 -363 -135t-364 153.5t-155 376.5q0 222 155.5 374t365.5 152q211 0 361 -135v121h174v-124q147 138 356 138t337.5 -146t128.5 -351 v-94h-807q38 -199 161 -244t189 -45q151 0 239 92l127 -119q-149 -149 -363 -149zM242 514q0 -74 27.5 -139.5t74.5 -112.5t112.5 -74.5t139.5 -27.5t138.5 27.5t111.5 74.5t74.5 112.5t27.5 139.5t-27.5 138.5t-74.5 111.5t-111.5 74.5t-138.5 27.5t-139.5 -27.5 t-112.5 -74.5t-74.5 -111.5t-27.5 -138.5z" glyph-name="ae" horiz-adv-x="1990" unicode="æ"/><glyph d="M596 1040q129 0 238 -61t186 -154l-137 -104q-45 69 -121 107t-158 38q-158 0 -261 -103t-102 -251t103 -250t252 -102q98 0 182 46t121 126l166 -58q-60 -131 -180 -207t-264 -83l-68 -88l68 6q65 0 109 -41t44 -103q0 -106 -70 -155t-148 -49q-79 0 -138 51 q-29 23 -56 51l58 45q52 -37 139 -37q33 0 64 22t31 60t-25 59q-25 20 -51 21l-80 -6l-60 30l97 137q-181 19 -315 151q-156 156 -155 377t156 373q154 152 375 152z" glyph-name="ccedilla" horiz-adv-x="1138" unicode="ç"/><glyph d="M366 787q-92 -79 -116 -195h620q0 102 -77 185q-82 89 -209 89q-126 0 -218 -79zM963 133q-149 -149 -368 -149t-375 154q-156 156 -155 376t151 373t365 153q214 0 343 -146t129 -351v-94h-807q25 -129 123 -210t237 -80q140 1 230 93zM729 1135l-393 163l45 105 l393 -162z" glyph-name="egrave" horiz-adv-x="1110" unicode="è"/><glyph d="M366 787q-92 -79 -116 -195h620q0 102 -77 185q-82 89 -209 89q-126 0 -218 -79zM963 133q-149 -149 -368 -149t-375 154q-156 156 -155 376t151 373t365 153q214 0 343 -146t129 -351v-94h-807q25 -129 123 -210t237 -80q140 1 230 93zM336 1241l393 162l45 -105 l-393 -163z" glyph-name="eacute" horiz-adv-x="1110" unicode="é"/><glyph d="M366 787q-92 -79 -116 -195h620q0 102 -77 185q-82 89 -209 89q-126 0 -218 -79zM963 133q-149 -149 -368 -149t-375 154q-156 156 -155 376t151 373t365 153q214 0 343 -146t129 -351v-94h-807q25 -129 123 -210t237 -80q140 1 230 93zM791 1165q-29 0 -238 95 q-217 -99 -236 -99l-4 115l240 100l242 -96z" glyph-name="ecircumflex" horiz-adv-x="1110" unicode="ê"/><glyph d="M366 787q-92 -79 -116 -195h620q0 102 -77 185q-82 89 -209 89q-126 0 -218 -79zM963 133q-149 -149 -368 -149t-375 154q-156 156 -155 376t151 373t365 153q214 0 343 -146t129 -351v-94h-807q25 -129 123 -210t237 -80q140 1 230 93zM716 1368q34 0 60 -26t27 -60 t-25 -60t-62 -26t-62 26t-26 62t28 60q26 24 60 24zM394 1196q-36 0 -62 26t-25 62q0 36 27 60q26 24 60 24t61 -26t27 -60t-26 -60t-62 -26z" glyph-name="edieresis" horiz-adv-x="1110" unicode="ë"/><glyph d="M80 1026h174v-1026h-174v1026zM346 1135l-393 163l45 105l393 -162z" glyph-name="igrave" horiz-adv-x="335" unicode="ì"/><glyph d="M80 1026h174v-1026h-174v1026zM-47 1241l393 162l45 -105l-393 -163z" glyph-name="iacute" horiz-adv-x="335" unicode="í"/><glyph d="M80 1026h174v-1026h-174v1026zM410 1165q-29 0 -238 95q-217 -99 -235 -99l-5 115l240 100l242 -96z" glyph-name="icircumflex" horiz-adv-x="335" unicode="î"/><glyph d="M80 1026h174v-1026h-174v1026zM333 1368q35 0 61 -26t26 -60t-26 -60t-61 -26q-36 0 -62 26q-25 26 -25 62t26 60t61 24zM11 1196q-35 0 -61 26t-26 62t27 60t61 24t60 -26t26 -60t-26 -60t-61 -26z" glyph-name="idieresis" horiz-adv-x="335" unicode="ï"/><glyph d="M343 751q-99 -99 -99 -244t97 -242t243 -97t244 97.5t98 243.5t-98 243.5t-242 97.5t-243 -99zM1110 521q0 -235 -149.5 -386t-374.5 -151q-224 0 -375.5 151.5t-151.5 380.5t155 373.5t370 144.5q39 0 73 -6l-98 152l-145 -101l-103 142l154 106l-90 133l160 96l79 -118 l144 102l102 -141l-151 -109l331 -518q70 -127 70 -251z" glyph-name="eth" horiz-adv-x="1169" unicode="ð"/><glyph d="M797 596q0 106 -82 190q-84 84 -191 82q-189 0 -250 -135q-23 -51 -22 -127v-606h-174v1024l174 -72q113 88 282 88t303 -124t134 -295v-621h-174v596zM408 1370q-83 0 -170 -63l-56 73q0 70 51 105t115 35h14q49 0 134 -31t129 -31q121 0 182 64l59 -74 q0 -100 -110 -131q-29 -8 -62 -8q-52 1 -144 31t-128 30h-14z" glyph-name="ntilde" horiz-adv-x="1050" unicode="ñ"/><glyph d="M220 138q-154 154 -154 376t155 374t373 152q219 0 374 -153q154 -153 154 -372t-152 -375t-373 -156t-377 154zM345 261q103 -103 251 -102t251 104t102 251t-104 251t-251 102t-250 -103t-102 -251t103 -252zM768 1135l-393 163l45 105l393 -162z" glyph-name="ograve" unicode="ò"/><glyph d="M220 138q-154 154 -154 376t155 374t373 152q219 0 374 -153q154 -153 154 -372t-152 -375t-373 -156t-377 154zM345 261q103 -103 251 -102t251 104t102 251t-104 251t-251 102t-250 -103t-102 -251t103 -252zM375 1241l393 162l45 -105l-393 -163z" glyph-name="oacute" unicode="ó"/><glyph d="M220 138q-154 154 -154 376t155 374t373 152q219 0 374 -153q154 -153 154 -372t-152 -375t-373 -156t-377 154zM345 261q103 -103 251 -102t251 104t102 251t-104 251t-251 102t-250 -103t-102 -251t103 -252zM831 1165q-28 0 -237 95q-217 -99 -236 -99l-4 115l240 100 l242 -96z" glyph-name="ocircumflex" unicode="ô"/><glyph d="M220 138q-154 154 -154 376t155 374t373 152q219 0 374 -153q154 -153 154 -372t-152 -375t-373 -156t-377 154zM345 261q103 -103 251 -102t251 104t102 251t-104 251t-251 102t-250 -103t-102 -251t103 -252zM477 1370q-83 0 -170 -63l-55 73q0 70 51 105t115 35h14 q50 0 134 -31q83 -31 128 -31q122 0 183 64l59 -74q0 -100 -111 -131q-29 -8 -72 -8q-43 1 -133 31t-128 30h-15z" glyph-name="otilde" unicode="õ"/><glyph d="M220 138q-154 154 -154 376t155 374t373 152q219 0 374 -153q154 -153 154 -372t-152 -375t-373 -156t-377 154zM345 261q103 -103 251 -102t251 104t102 251t-104 251t-251 102t-250 -103t-102 -251t103 -252zM755 1368q35 0 61 -26t26 -60t-26 -60t-61 -26 q-36 0 -62 26q-25 26 -25 62t26 60t61 24zM433 1196q-35 0 -61 26t-26 62t27 60t61 24t60 -26t26 -60t-26 -60t-61 -26z" glyph-name="odieresis" unicode="ö"/><glyph d="M554 121q-36 0 -61.5 25.5t-25.5 61.5t26.5 60.5t60.5 24.5t60.5 -25.5t26.5 -59.5t-25.5 -60.5t-61.5 -26.5zM554 754q-36 0 -61.5 25.5t-25.5 61.5t26.5 60.5t60.5 24.5t60.5 -26t26.5 -60t-25.5 -60t-61.5 -26zM1065 457h-1018v135h1018v-135z" glyph-name="divide" horiz-adv-x="1114" unicode="÷"/><glyph d="M238 514q0 -109 54 -192.5t142 -126.5l195 669l-37 2q-150 0 -252 -102t-102 -250zM592 160q148 0 250 102t102 252q0 109 -57.5 195t-149.5 127l-194 -674q12 -2 15 -2h34zM61 514q0 221 156 373.5t375 152.5q40 0 86 -8l31 103h118l-41 -131q147 -58 239.5 -191.5 t92.5 -298.5q0 -220 -153 -375t-373 -155q-47 0 -98 10l-35 -113l-115 4l41 140q-145 62 -234.5 194.5t-89.5 294.5z" glyph-name="oslash" horiz-adv-x="1179" unicode="ø"/><glyph d="M74 408v614h174v-590q0 -108 83 -191t189 -81q191 0 250 134q23 50 23 128v600h174v-1022l-174 76q-120 -94 -271 -92q-182 0 -315 126q-133 125 -133 298zM694 1135l-393 163l45 105l393 -162z" glyph-name="ugrave" horiz-adv-x="1040" unicode="ù"/><glyph d="M74 408v614h174v-590q0 -108 83 -191t189 -81q191 0 250 134q23 50 23 128v600h174v-1022l-174 76q-120 -94 -271 -92q-182 0 -315 126q-133 125 -133 298zM301 1241l393 162l45 -105l-393 -163z" glyph-name="uacute" horiz-adv-x="1040" unicode="ú"/><glyph d="M74 408v614h174v-590q0 -108 83 -191t189 -81q191 0 250 134q23 50 23 128v600h174v-1022l-174 76q-120 -94 -271 -92q-182 0 -315 126q-133 125 -133 298zM756 1165q-29 0 -238 95q-217 -99 -235 -99l-4 115l239 100l242 -96z" glyph-name="ucircumflex" horiz-adv-x="1040" unicode="û"/><glyph d="M74 408v614h174v-590q0 -108 83 -191t189 -81q191 0 250 134q23 50 23 128v600h174v-1022l-174 76q-120 -94 -271 -92q-182 0 -315 126q-133 125 -133 298zM681 1196q-35 0 -61 26t-26 62t27 60t61 24t60 -26t26 -60t-26 -60t-61 -26zM359 1196q-35 0 -61 26t-26 62 t27 60t61 24t60 -26t26 -60t-26 -60t-61 -26z" glyph-name="udieresis" horiz-adv-x="1040" unicode="ü"/><glyph d="M383 -422h-180l155 430l-354 1016h186l259 -762l264 766h182zM229 1241l394 162l45 -105l-394 -163z" glyph-name="yacute" horiz-adv-x="897" unicode="ý"/><glyph d="M958 512q0 74 -27.5 139.5t-74.5 112.5t-112.5 74.5t-139.5 27.5t-138.5 -27.5t-111.5 -74.5t-74.5 -112.5t-27.5 -139.5t27.5 -138.5t74.5 -111.5t111.5 -74.5t138.5 -27.5t139.5 27.5t112.5 74.5t74.5 111.5t27.5 138.5zM252 907q150 135 362 135t366.5 -154.5 t154.5 -375.5t-156 -373.5t-368 -152.5t-359 135v-537h-174v1852h174v-529z" glyph-name="thorn" horiz-adv-x="1214" unicode="þ"/><glyph d="M383 -422h-180l155 430l-354 1016h186l259 -762l264 766h182zM609 1196q-35 0 -61 26t-26 62t27 60t61 24t60 -26t26 -60t-26 -60t-61 -26zM288 1368q34 0 60 -26t27 -60t-25 -60t-62 -26t-62 26t-26 62t28 60q26 24 60 24z" glyph-name="ydieresis" horiz-adv-x="897" unicode="ÿ"/><glyph d="M80 1026h174v-1026h-174v1026z" glyph-name="dotlessi" horiz-adv-x="335" unicode="ı"/><glyph d="M342 1536h184v-512l150 145l129 -131l-279 -272v-569q0 -12 13 -13h555v-184h-752v588l-139 -135l-129 131l268 260v692z" glyph-name="Lslash" horiz-adv-x="1169" unicode="Ł"/><glyph d="M516 0h-174v598l-143 -143l-123 125l266 264v590h174v-416l131 131l121 -125l-252 -252v-772z" glyph-name="lslash" horiz-adv-x="843" unicode="ł"/><glyph d="M2210 0h-754v267q-119 -144 -280.5 -213.5t-324.5 -69.5t-305.5 61t-249 167.5t-167.5 249t-61 305.5t61 306.5t167.5 250t249 167.5t305.5 61t324.5 -69t280.5 -214v267h754v-184h-557q-12 0 -13 -9v-471q0 -8 13 -8h557v-184h-557q-12 0 -13 -10v-473q0 -12 13 -13h557 v-184zM252 769q0 -124 47 -233.5t129 -191.5t191.5 -129t233.5 -47t232.5 47t190.5 129t129 191.5t47 233.5q0 247 -176 423t-424 176q-123 0 -232.5 -47t-191.5 -129t-129 -190.5t-47 -232.5z" glyph-name="OE" horiz-adv-x="2273" unicode="Œ"/><glyph d="M1256 789q-93 -77 -117 -197h620q0 100 -79.5 187t-204.5 87q-126 0 -219 -77zM1851 133q-149 -149 -367 -149t-375 154q-40 40 -71 88q-89 -139 -211 -190.5t-232 -51.5q-219 0 -374 153.5t-155 376.5q0 222 155.5 374t373.5 152q219 0 374 -153q39 -39 68 -85 q84 134 206.5 186t230.5 52q211 0 339.5 -146t128.5 -351v-94h-807q25 -130 121 -209.5t238 -79.5t230 92zM242 514q0 -74 27.5 -139.5t74.5 -112.5t112.5 -74.5t139.5 -27.5t138.5 27.5t111.5 74.5t74.5 112.5t27.5 139.5t-27.5 138.5t-74.5 111.5t-111.5 74.5t-138.5 27.5 t-139.5 -27.5t-112.5 -74.5t-74.5 -111.5t-27.5 -138.5z" glyph-name="oe" horiz-adv-x="1984" unicode="œ"/><glyph d="M721 400q0 146 -127 227q-74 47 -160 84t-153 73q-115 64 -164 146t-49 186q0 188 125 314q125 125 292 122q115 0 211 -57t150 -149l-164 -84q-27 48 -81 78q-53 30 -107 30q-102 0 -172 -69t-70 -154q0 -86 31 -129q31 -44 67 -64t78 -40q134 -64 250 -123 q219 -128 219 -377q0 -176 -128 -304t-294 -127t-275 85t-126 190l178 31q60 -123 219 -123q99 0 175 74t75 160zM246 1786q17 0 235 -98q206 94 238 94l4 -115l-242 -96l-239 100z" glyph-name="Scaron" horiz-adv-x="966" unicode="Š"/><glyph d="M633 280q0 -130 -87 -215q-87 -83 -212 -81q-84 0 -161 42q-76 42 -101 113l139 97q10 -12 21 -26q43 -52 99 -52t92 34t36 80q0 106 -215 232q-74 43 -123 97t-49 130q0 135 88 223t201 87t202 -79q27 -24 43 -51l-133 -116l-47 47q-25 24 -73 24t-78 -28 q-29 -28 -29 -70q0 -41 31 -71t162 -112q194 -124 194 -305zM113 1376q22 0 235 -98q210 96 238 94l4 -115l-242 -96l-239 101z" glyph-name="scaron" horiz-adv-x="700" unicode="š"/><glyph d="M444 0v555l-428 981h203l309 -711q2 -8 8 -8t9 8l307 711h201l-424 -981v-555h-185zM695 1606q-35 0 -61 26t-26 61q0 37 27 61t61 24t60 -26t26 -60t-25 -60q-26 -26 -62 -26zM374 1606q-36 0 -62 26t-26 61q0 37 28 61q26 24 60 24t60 -26t27 -60t-25 -60t-62 -26z" glyph-name="Ydieresis" horiz-adv-x="1071" unicode="Ÿ"/><glyph d="M786 1346q0 6 -8 6h-710v184h970v-131l-725 -1208q-2 -1 -2 -7t8 -6h721v-184h-972v145l716 1194q2 1 2 7zM317 1786q16 0 236 -98q206 94 238 94l4 -115l-242 -96l-240 100z" glyph-name="Zcaron" horiz-adv-x="1107" unicode="Ž"/><glyph d="M82 0v115l485 747h-485v162h696v-133l-473 -729h488v-162h-711zM199 1376q22 0 235 -98q210 96 238 94l4 -115l-242 -96l-239 101z" glyph-name="zcaron" horiz-adv-x="870" unicode="ž"/><glyph d="M522 879v-902q0 -115 -60.5 -182t-164.5 -67h-246v145h201q96 0 96 127v879h-239v145h239v160q0 115 60.5 182.5t164.5 67.5h248v-146h-203q-96 0 -96 -127v-137h361v-145h-361z" glyph-name="florin" horiz-adv-x="935" unicode="ƒ"/><glyph d="M537 1165q-29 0 -238 95q-217 -99 -236 -99l-4 115l240 100l242 -96z" glyph-name="circumflex" horiz-adv-x="600" unicode="ˆ"/><glyph d="M61 1376q21 0 236 -98q206 94 238 94l4 -115l-242 -96l-240 101z" glyph-name="caron" horiz-adv-x="598" unicode="ˇ"/><glyph d="M598 1495q-108 -129 -264 -129t-264 129l57 57q63 -53 108.5 -73.5t98.5 -20.5t98 20.5t109 73.5z" glyph-name="breve" horiz-adv-x="669" unicode="˘"/><glyph d="M157 1358q-36 0 -61.5 25.5t-25.5 61.5t26.5 60.5t60.5 24.5t60.5 -25.5t26.5 -59.5t-25.5 -60.5t-61.5 -26.5z" glyph-name="dotaccent" horiz-adv-x="313" unicode="˙"/><glyph d="M154 1178q20 0 33.5 12t13.5 34t-13.5 35t-35.5 13t-34 -13.5t-12 -33.5q1 -47 48 -47zM153.5 1141q-36.5 0 -60 24.5t-23.5 60.5t24.5 60.5t59 24.5t60.5 -25.5t26 -60.5t-25 -59.5t-61.5 -24.5z" glyph-name="ring" horiz-adv-x="309" unicode="˚"/><glyph d="M162 -254q0 -100 82 -100h8q40 0 69 20t39 37l37 -45q-29 -56 -78 -80t-107 -24t-103.5 46t-45.5 110q0 100 62 178t133 112h72q-109 -67 -138.5 -140t-29.5 -114z" glyph-name="ogonek" horiz-adv-x="462" unicode="˛"/><glyph d="M299 1370q-83 0 -170 -63l-55 73q0 70 51 105t115 35h14q48 0 133 -31t129 -31q121 0 182 64l60 -74q0 -68 -53 -103.5t-102 -35.5q-73 0 -159.5 30.5t-130.5 30.5h-14z" glyph-name="tilde" horiz-adv-x="833" unicode="˜"/><glyph d="M778 1583q19 0 35 -15.5t16 -37.5q0 -43 -45 -62l-225 -88q-17 -6 -33 -6t-33.5 19t-17.5 48t41 46l225 88q18 8 37 8zM370.5 1583q18.5 0 35 -15.5t16.5 -37.5q0 -43 -45 -62l-225 -88q-16 -6 -32 -6t-34 19t-18 48t41 46l225 88q18 8 36.5 8z" glyph-name="hungarumlaut" horiz-adv-x="897" unicode="˝"/><glyph d="M1102 520h-1024v135h1024v-135z" glyph-name="endash" horiz-adv-x="1179" unicode="–"/><glyph d="M1462 520h-1384v135h1384v-135z" glyph-name="emdash" horiz-adv-x="1542" unicode="—"/><glyph d="M37 1524l166 12l16 -401h-63z" glyph-name="quoteleft" horiz-adv-x="274" unicode="‘"/><glyph d="M137 1135h-63l16 401l166 -12z" glyph-name="quoteright" horiz-adv-x="325" unicode="’"/><glyph d="M137 -160l-63 2l16 400l166 -13z" glyph-name="quotesinglbase" horiz-adv-x="325" unicode="‚"/><glyph d="M57 1524l166 12l17 -401h-64zM295 1524l166 12l16 -401h-63z" glyph-name="quotedblleft" horiz-adv-x="542" unicode="“"/><glyph d="M375 1135h-64l17 401l166 -12zM137 1135h-63l16 401l166 -12z" glyph-name="quotedblright" horiz-adv-x="563" unicode="”"/><glyph d="M373 -160l-64 2l17 400l166 -13zM137 -160l-63 2l16 400l166 -13z" glyph-name="quotedblbase" horiz-adv-x="563" unicode="„"/><glyph d="M45 870v174h502v492h174v-492h496v-174h-496v-1247h-174v1247h-502z" glyph-name="dagger" horiz-adv-x="1263" unicode="†"/><glyph d="M47 870v174h502v490h174v-490h502v-174h-502v-229h502v-174h-502v-848h-174v848h-502v174h502v229h-502z" glyph-name="daggerdbl" horiz-adv-x="1267" unicode="‡"/><glyph d="M68 613q0 77 53 131.5t130 54.5t131 -54.5t54 -131.5t-54 -130t-131 -53t-130 53t-53 130z" glyph-name="bullet" horiz-adv-x="503" unicode="•"/><glyph d="M1060 -8q-36 0 -61.5 25.5t-25.5 61.5t26.5 60.5t60.5 24.5t60.5 -25.5t26.5 -59.5t-25.5 -60.5t-61.5 -26.5zM611 -8q-36 0 -61.5 25.5t-25.5 61.5t27 60.5t61 24.5t60 -25.5t26 -59.5t-25.5 -60.5t-61.5 -26.5zM163 -8q-36 0 -61.5 25.5t-25.5 61.5t26.5 60.5 t60.5 24.5t60.5 -25.5t26.5 -59.5t-25.5 -60.5t-61.5 -26.5z" glyph-name="ellipsis" horiz-adv-x="1224" unicode="…"/><glyph d="M416 39l823 1513l94 -61l-821 -1505zM1769 368.5q0 75.5 29 143.5t79 118t117.5 78.5t143.5 28.5t143.5 -28.5t117.5 -78.5t79 -118t29 -143.5t-29 -143t-79 -118t-117.5 -79t-143.5 -28.5t-143.5 28.5t-117.5 79t-79 118t-29 143zM1915 369q0 -47 17.5 -88t47 -71 t70.5 -47.5t88 -17.5t88 17.5t71 47.5t47 71t17 88t-17 88t-47 70.5t-71 47t-88 17.5t-88 -17.5t-70.5 -47t-47 -70.5t-17.5 -88zM66 1167.5q0 75.5 28.5 143t78.5 118t117.5 79t143.5 28.5t143.5 -28.5t117.5 -79t79 -118t29 -143t-29 -143.5t-79 -118t-117.5 -78.5 t-143.5 -28.5t-143.5 28.5t-117.5 78.5t-78.5 118t-28.5 143.5zM211 1167q0 -47 17.5 -88t47 -70.5t70.5 -47t88 -17.5t88 17.5t71 47t47 70.5t17 88t-17 88t-47 71t-71 47.5t-88 17.5t-88 -17.5t-70.5 -47.5t-47 -71t-17.5 -88zM981 368.5q0 75.5 28.5 143.5t79 118 t118 78.5t143 28.5t143.5 -28.5t118 -78.5t78.5 -118t28.5 -143.5t-28.5 -143t-78.5 -118t-118 -79t-143.5 -28.5t-143 28.5t-118 79t-79 118t-28.5 143zM1126 369q0 -47 17.5 -88t47.5 -71t71 -47.5t88 -17.5t88 17.5t70.5 47.5t47 71t17.5 88t-17.5 88t-47 70.5t-70.5 47 t-88 17.5t-88 -17.5t-71 -47t-47.5 -70.5t-17.5 -88z" glyph-name="perthousand" horiz-adv-x="2574" unicode="‰"/><glyph d="M291 154l-256 399l256 397l112 -73l-208 -326l208 -324z" glyph-name="guilsinglleft" horiz-adv-x="458" unicode="‹"/><glyph d="M449 553q0 -4 -6.5 -13.5t-32 -47t-76.5 -117.5t-141 -221l-113 73l209 324l-209 326l113 73z" glyph-name="guilsinglright" horiz-adv-x="516" unicode="›"/><glyph d="M33 31l829 1523l94 -61l-821 -1505z" glyph-name="fraction" horiz-adv-x="989" unicode="⁄"/><glyph d="M918 836h-562v-144h562v-135h-562v-70q0 -123 95 -220t225 -97q92 0 168 50t114 132l160 -92q-63 -123 -182.5 -199.5t-237.5 -76.5q-222 0 -372 145t-150 354v74h-115v135h115v144h-115v135h115v80q0 200 148.5 348.5t351.5 148.5q131 0 259 -78.5t191 -212.5l-168 -77 q-39 80 -114.5 131t-155.5 51q-144 0 -238 -96t-94 -219v-76h562v-135z" glyph-name="Euro" horiz-adv-x="1196" unicode="€"/><glyph d="M573 770v768h134l204 -600q0 -2 1 1t8.5 18.5t19.5 52.5t44 128t136 400h133v-766h-92v621l-16 -45q-16 -45 -39 -115t-50.5 -149.5t-50 -149.5t-38.5 -117l-17 -47h-71l-213 625v-625h-93zM508 1446h-193q-8 0 -8 -8v-668h-92v668q0 8 -6 8h-191v92h490v-92z" glyph-name="trademark" horiz-adv-x="1310" unicode="™"/><glyph d="M1014 457h-936v135h936v-135z" glyph-name="minus" horiz-adv-x="1091" unicode="−"/><glyph d="M289 1184q0 114 60 182t165 68h246v-146h-201q-96 0 -96 -127v-153h362v-158h-362v-850h-174v850h-240v158h240v176zM1149 1248q1 -34 -25 -60t-62 -27q-36 0 -62 26q-26 25 -26 61t27 61t61 25t60 -26t27 -60zM975 1024h174v-1024h-174v1024z" glyph-name="uniFB01" horiz-adv-x="1222" unicode="ﬁ"/></font>
</defs>
</svg>
