<?xml version="1.0" encoding="utf-8"?>
<!-- Generator: Adobe Illustrator 17.1.0, SVG Export Plug-In . SVG Version: 6.00 Build 0)  -->
<!DOCTYPE svg PUBLIC "-//W3C//DTD SVG 1.1//EN" "http://www.w3.org/Graphics/SVG/1.1/DTD/svg11.dtd">
<svg version="1.1" id="Layer_1" xmlns="http://www.w3.org/2000/svg" xmlns:xlink="http://www.w3.org/1999/xlink" x="0px" y="0px"
	 viewBox="0 0 69.5 23" enable-background="new 0 0 69.5 23" xml:space="preserve">
<g>
	<path fill="#FFFFFF" d="M62.5,0.6C59.4,0,56.2-0.1,53.1,0c-3.1,0.1-6.2,0.3-9.3,0.8c-2,0.3-3.7,1.1-5.6,1.5
		c-2.1,0.4-3.8,0.5-5.9,0.2c-2-0.3-3.8-1.1-5.7-1.5c-2.9-0.6-5.9-0.8-8.8-0.9C12.9-0.1,8.3,0.4,3.7,1.1C3.3,1.2,0,1.6,0,1.9
		c0.1,1.5,0.3,3,0.4,4.5c2.1-1,3,6.3,3.3,7.4c0.6,2.5,1.2,5.1,3.2,7c1.4,1.3,3.3,1.6,5.1,1.9c3.2,0.4,6.5,0.5,9.6-0.5
		c4-1.2,6.5-4.7,8.5-8.2c0.7-1.2,1.3-2.5,1.8-3.8c0.3-0.8,0.4-1.7,0.9-2.4c1.3-1.6,3.7-0.9,4.2,1.1c1.1,4.3,3.9,8.4,7,11.5
		c1.7,1.7,4.7,2.3,7,2.5c2.8,0.3,5.6,0.1,8.3-0.5c3.2-0.7,5.3-3.6,5.9-6.7c0.4-1.8,0.9-3.6,1.3-5.4c0.2-1,0.8-4.7,2.5-3.9
		c0.1-1,0.2-2.1,0.3-3.1c0.1-0.7,0.5-1.5-0.3-1.6C66.9,1.3,64.7,1,62.5,0.6 M63.3,14.3c-0.2,3.2-2.4,5.7-5.6,6.3
		c-4.5,0.9-10.3,0.4-13.5-3.3c-1.1-1.2-1.8-2.8-2.5-4.3C40.8,11,40,8.6,40.5,6.3C41,4.2,42.8,3.4,44.7,3c2.1-0.4,4.3-0.9,6.5-1
		c1.9-0.1,3.9,0,5.8,0.3c1.9,0.2,4.7,0.6,5.9,2.3C64.6,7.2,63.9,11.4,63.3,14.3 M26.6,15.5c-2.5,4.9-8.4,5.9-13.3,5.4
		c-2-0.2-3.9-0.6-5.2-2.2c-1-1.1-1.6-2.6-1.8-4c-0.4-2.8-1-5.7-0.3-8.5c1-4.3,7.3-4.2,10.8-4.2c2.1,0,4.1,0.3,6.2,0.6
		c1.7,0.3,3.6,0.5,4.9,1.7C30.7,7.1,28.3,12.6,26.6,15.5"/>
</g>
</svg>
