<?xml version="1.0" encoding="utf-8"?>
<!-- Generator: Adobe Illustrator 17.1.0, SVG Export Plug-In . SVG Version: 6.00 Build 0)  -->
<!DOCTYPE svg PUBLIC "-//W3C//DTD SVG 1.1//EN" "http://www.w3.org/Graphics/SVG/1.1/DTD/svg11.dtd">
<svg version="1.1" id="Layer_1" xmlns="http://www.w3.org/2000/svg" xmlns:xlink="http://www.w3.org/1999/xlink" x="0px" y="0px"
	 viewBox="0 0 45.3 15" enable-background="new 0 0 45.3 15" xml:space="preserve">
<g>
	<path d="M40.8,0.4C38.8,0,36.7,0,34.6,0c-2,0.1-4.1,0.2-6,0.5c-1.3,0.2-2.4,0.7-3.7,1c-1.4,0.3-2.5,0.3-3.9,0.1
		c-1.3-0.2-2.5-0.7-3.7-1c-1.9-0.4-3.8-0.5-5.8-0.6c-3.1-0.1-6,0.2-9.1,0.7C2.1,0.8,0,1,0,1.2c0.1,1,0.2,2,0.3,3
		c1.3-0.6,2,4.1,2.2,4.9c0.4,1.7,0.8,3.3,2.1,4.6c0.9,0.9,2.1,1.1,3.3,1.2c2.1,0.3,4.3,0.3,6.3-0.3c2.6-0.8,4.2-3,5.6-5.3
		c0.5-0.8,0.9-1.6,1.2-2.5c0.2-0.5,0.2-1.1,0.6-1.6c0.8-1.1,2.4-0.6,2.7,0.7c0.7,2.8,2.5,5.5,4.6,7.5c1.1,1.1,3.1,1.5,4.5,1.6
		c1.8,0.2,3.7,0.1,5.4-0.3c2.1-0.4,3.4-2.3,3.8-4.4c0.2-1.2,0.6-2.3,0.8-3.5c0.2-0.6,0.5-3.1,1.6-2.5c0.1-0.7,0.1-1.4,0.2-2
		c0-0.5,0.3-1-0.2-1.1C43.6,0.9,42.2,0.6,40.8,0.4 M41.3,9.3c-0.1,2.1-1.6,3.7-3.6,4.1c-3,0.6-6.7,0.3-8.8-2.1
		c-0.7-0.8-1.2-1.8-1.6-2.8c-0.6-1.3-1.1-3-0.8-4.4c0.3-1.4,1.5-1.9,2.7-2.2c1.4-0.3,2.8-0.6,4.3-0.7c1.3-0.1,2.6,0,3.8,0.2
		C38.4,1.6,40.3,1.8,41,3C42.2,4.7,41.7,7.4,41.3,9.3 M17.3,10.1c-1.6,3.2-5.5,3.9-8.7,3.5c-1.3-0.1-2.5-0.4-3.4-1.4
		c-0.6-0.7-1-1.7-1.2-2.6C3.8,7.7,3.4,5.8,3.8,4c0.7-2.8,4.8-2.7,7-2.7c1.4,0,2.7,0.2,4,0.4C16,1.9,17.3,2,18.1,2.8
		C20.1,4.6,18.4,8.2,17.3,10.1"/>
</g>
</svg>
